<?xml version="1.0" encoding="utf-8"?>
<!-- Generator: Adobe Illustrator 21.0.2, SVG Export Plug-In . SVG Version: 6.00 Build 0)  -->
<svg version="1.1" id="Layer_1" xmlns="http://www.w3.org/2000/svg" xmlns:xlink="http://www.w3.org/1999/xlink" x="0px" y="0px"
	 viewBox="0 0 80.8 80.7" style="enable-background:new 0 0 80.8 80.7;" xml:space="preserve">
<style type="text/css">
	.st0{enable-background:new    ;}
	.st1{fill:#FFFFFF;}
</style>
<title>w-horizontal-Asset 5</title>
<g id="Layer_2">
	<g id="Layer_3">
		<g class="st0">
			<path class="st1" d="M5.6,39.1C4.5,39.3,4,40,4.1,41.2c0.1,1.1,0.6,1.8,1.6,1.7c0.8,0,1.2-0.4,1.6-1.8c0.5-1.6,1-2.2,2-2.2
				c1.2-0.1,2.4,0.7,2.5,2.6c0.1,1.9-0.9,2.7-2.1,2.8l-0.1-1c0.8-0.1,1.4-0.6,1.3-1.8c-0.1-1-0.7-1.5-1.4-1.5
				c-0.6,0-0.9,0.3-1.3,1.6C7.7,43.3,7,43.9,5.9,44c-1.3,0.1-2.6-0.7-2.7-2.9c-0.1-1.9,0.9-2.9,2.4-3.1L5.6,39.1z"/>
		</g>
		<g class="st0">
			<path class="st1" d="M12.4,47.4l0.9,2.5c0.6,1.6,0,2.7-1.2,3.1c-1.7,0.6-3-0.3-3.6-2.1L7.8,49l-3.5,0.5l-0.4-1L12.4,47.4z
				 M8.7,48.9l0.6,1.7c0.4,1.2,1.2,1.8,2.4,1.4c0.9-0.3,1.1-1.1,0.7-2.1l-0.5-1.5L8.7,48.9z"/>
		</g>
		<g class="st0">
			<path class="st1" d="M14.3,60.7L12,57.6L9.1,59l2.7,3.6l-0.9,0.3l-3.2-4.3l7.7-3.6l3.1,4.1l-0.8,0.4l-2.5-3.3l-2.4,1.1l2.3,3.1
				L14.3,60.7z"/>
		</g>
		<g class="st0">
			<path class="st1" d="M13.7,66.6l6.5-5.6l1.1,0.8c-0.6,2-1.9,6.5-2.3,7.3l0,0c0.7-0.7,1.9-1.7,3-2.6l2.6-2.2l0.8,0.6l-6.5,5.6
				l-1-0.8c0.6-1.8,2-6.6,2.4-7.5l0,0c-0.8,0.8-1.9,1.7-3,2.7l-2.6,2.3L13.7,66.6z"/>
		</g>
		<g class="st0">
			<path class="st1" d="M30.8,73.6c-1.1,1.3-2.4,1.9-4.3,1.3c-2-0.7-2.4-2.4-1.8-4.2c0.8-2.3,3-4.5,5.7-3.6c1.7,0.6,2.4,1.9,1.9,3.5
				l-1-0.3c0.2-1-0.1-1.9-1.3-2.3c-1.9-0.6-3.6,1.1-4.3,3.1c-0.4,1.3-0.3,2.6,1.1,3c1,0.4,2,0.1,2.8-0.8L30.8,73.6z"/>
		</g>
		<g class="st0">
			<path class="st1" d="M40,73.4l-3.9-0.1l-0.7,3l4.4,0.1l-0.4,0.9l-5.3-0.2l2-8.3l5.1,0.2L41,70l-4.1-0.1l-0.7,2.6l3.9,0.1L40,73.4
				z"/>
		</g>
		<g class="st0">
			<path class="st1" d="M45.1,73.5l0.1,3.8l-1,0.2L44,69l2.7-0.6c1.5-0.4,2.5,0.2,2.8,1.4c0.3,1.2-0.3,2.1-1.3,2.6
				c0.5,0.1,1.3,0.4,1.3,1.8c0,1,0,1.7,0.1,2l-1,0.2c-0.1-0.3-0.2-1-0.2-2c0-1.2-0.5-1.7-1.7-1.4L45.1,73.5z M45.1,72.6l1.6-0.4
				c1.3-0.3,2-1,1.8-2.1c-0.2-0.8-0.8-1.1-1.7-0.9L45,69.7L45.1,72.6z"/>
		</g>
		<g class="st0">
			<path class="st1" d="M57.7,68.6l-3.4,1.9l1,3l3.9-2.2l0.2,0.9l-4.7,2.7L52,66.7l4.5-2.6l0.3,0.9l-3.6,2.1l0.8,2.6l3.4-2
				L57.7,68.6z"/>
		</g>
		<g class="st0">
			<path class="st1" d="M64.6,62.9l-2.7,2.8l1.7,2.6l3.1-3.2l0.4,0.9l-3.8,3.8l-4.7-7.1l3.6-3.7l0.5,0.8l-2.9,2.9l1.5,2.2l2.7-2.8
				L64.6,62.9z"/>
		</g>
		<g class="st0">
			<path class="st1" d="M71.5,60.6l-7.9-3l0.5-0.9l4.1,1.6c1.1,0.4,2.4,1,2.8,1.2l0,0c-0.5-0.6-1.2-1.8-2-3l-2.5-4.1l0.5-1l5,8.3
				L71.5,60.6z"/>
		</g>
		<g class="st0">
			<path class="st1" d="M72.9,46.3l-0.8,3.8l2.9,1.2l0.9-4.4l0.8,0.5l-1.1,5.2l-7.8-3.4l1-5l0.8,0.4l-0.8,4l2.4,1.1l0.8-3.8
				L72.9,46.3z"/>
		</g>
		<g class="st0">
			<path class="st1" d="M75.2,41.9c1.1-0.2,1.6-0.9,1.6-2.1c-0.1-1.1-0.6-1.8-1.6-1.7c-0.8,0-1.2,0.4-1.6,1.8c-0.5,1.6-1,2.2-2,2.2
				c-1.2,0.1-2.4-0.7-2.5-2.6c-0.1-1.9,0.9-2.7,2.1-2.8l0.1,1c-0.8,0.1-1.4,0.6-1.3,1.8c0.1,1,0.7,1.5,1.4,1.5
				c0.6,0,0.9-0.3,1.3-1.6c0.5-1.8,1.2-2.4,2.3-2.5c1.3-0.1,2.6,0.7,2.7,2.9c0.1,1.9-0.9,2.9-2.4,3.1L75.2,41.9z"/>
		</g>
		<g class="st0">
			<path class="st1" d="M68.5,33.6l-0.9-2.5c-0.6-1.6,0-2.7,1.2-3.1c1.7-0.6,3,0.3,3.6,2.1l0.7,1.9l3.5-0.5l0.4,1L68.5,33.6z
				 M72.2,32.1l-0.6-1.7c-0.4-1.2-1.2-1.8-2.4-1.4c-0.9,0.3-1.1,1.1-0.7,2.1l0.5,1.5L72.2,32.1z"/>
		</g>
		<g class="st0">
			<path class="st1" d="M66.6,20.2l2.3,3.2l2.9-1.3l-2.6-3.6l0.9-0.3l3.1,4.3l-7.8,3.4l-3-4.2l0.8-0.4l2.4,3.3l2.4-1.1l-2.3-3.2
				L66.6,20.2z"/>
		</g>
		<g class="st0">
			<path class="st1" d="M67.3,14.3l-6.5,5.6l-1.1-0.8c0.6-2,1.9-6.5,2.3-7.3l0,0c-0.7,0.7-1.9,1.7-3,2.6l-2.6,2.2l-0.8-0.6l6.5-5.6
				l1,0.8c-0.6,1.8-2,6.6-2.3,7.5l0,0c0.8-0.8,1.9-1.7,3-2.7l2.6-2.3L67.3,14.3z"/>
		</g>
		<g class="st0">
			<path class="st1" d="M50.2,7.1c1.1-1.3,2.5-1.8,4.3-1.2c2,0.7,2.3,2.4,1.7,4.2c-0.8,2.3-3.1,4.4-5.8,3.4
				c-1.7-0.6-2.3-1.9-1.9-3.5l1,0.4c-0.3,1,0,1.9,1.2,2.3c1.9,0.7,3.6-1,4.3-3c0.5-1.3,0.3-2.5-1.1-3.1c-1-0.4-2-0.1-2.8,0.8
				L50.2,7.1z"/>
		</g>
		<g class="st0">
			<path class="st1" d="M41,7.3l3.9,0.2l0.8-3l-4.4-0.3l0.4-0.9L47,3.6l-2.2,8.2l-5.1-0.3l0.2-0.9l4.1,0.2l0.7-2.6l-3.9-0.2L41,7.3z
				"/>
		</g>
		<g class="st0">
			<path class="st1" d="M36,7.2l-0.1-3.8l1-0.2l0.2,8.5l-2.7,0.6c-1.5,0.4-2.5-0.2-2.8-1.4c-0.3-1.2,0.3-2.1,1.3-2.6
				c-0.5-0.1-1.3-0.4-1.3-1.8c0-1,0-1.7-0.1-2l1-0.2c0.1,0.3,0.2,1,0.2,2c0,1.2,0.5,1.7,1.7,1.4L36,7.2z M36,8.1l-1.6,0.4
				c-1.3,0.3-2,1-1.8,2.1c0.2,0.8,0.8,1.1,1.7,0.9l1.7-0.4L36,8.1z"/>
		</g>
		<g class="st0">
			<path class="st1" d="M23.4,12l3.4-1.9l-1-3l-3.9,2.2l-0.2-0.9l4.7-2.7l2.6,8.1l-4.5,2.6l-0.3-0.9l3.6-2.1L27,10.9l-3.4,1.9
				L23.4,12z"/>
		</g>
		<g class="st0">
			<path class="st1" d="M16.4,17.6l2.7-2.8l-1.7-2.6l-3.1,3.2l-0.4-0.9l3.8-3.8l4.7,7.1l-3.6,3.7l-0.5-0.8l2.9-2.9l-1.5-2.2
				l-2.7,2.8L16.4,17.6z"/>
		</g>
		<g class="st0">
			<path class="st1" d="M9.4,19.9l7.9,3l-0.5,0.9l-4.1-1.6c-1-0.4-2.4-1-2.8-1.2l0,0c0.5,0.6,1.2,1.8,2,3l2.5,4.1l-0.5,1l-5-8.2
				L9.4,19.9z"/>
		</g>
		<g class="st0">
			<path class="st1" d="M7.7,34.4l1.1-3.8L6,29.2l-1.2,4.3L4,32.9l1.5-5.1l7.6,4l-1.4,4.9l-0.8-0.4l1.1-3.9l-2.4-1.3l-1.1,3.8
				L7.7,34.4z"/>
		</g>
	</g>
</g>
</svg>
