<svg xmlns="http://www.w3.org/2000/svg" viewBox="0 0 638.74 795.3"><defs><style>.cls-1{font-size:28.7px;fill:none;font-family:IntegralCF-Bold, Integral CF;font-weight:700;}.cls-2,.cls-3,.cls-4,.cls-5,.cls-8{stroke:#62072e;stroke-miterlimit:10;stroke-width:0.25px;}.cls-3,.cls-7{letter-spacing:-0.02em;}.cls-4{letter-spacing:0em;}.cls-5{letter-spacing:-0.01em;}.cls-6,.cls-7{fill:#62072e;}.cls-8{letter-spacing:0em;}</style></defs><title>w-horizontal-Asset 5</title><g id="Layer_2" data-name="Layer 2"><g id="Layer_1-2" data-name="Layer 1"><text></text><text class="cls-1" transform="translate(0.13 33.81) scale(1.3 1)"><tspan class="cls-2">SPENCERE</tspan><tspan class="cls-3" x="170.05" y="0">E</tspan><tspan class="cls-4" x="189.35" y="0">VESPENCERE</tspan><tspan class="cls-3" x="403.47" y="0">E</tspan><tspan class="cls-4" x="422.78" y="0">VES</tspan><tspan class="cls-2" x="0" y="22.73">PENCERE</tspan><tspan class="cls-3" x="148.93" y="22.73">E</tspan><tspan class="cls-4" x="168.24" y="22.73">VESPENCERE</tspan><tspan class="cls-3" x="382.36" y="22.73">E</tspan><tspan class="cls-4" x="401.66" y="22.73">VESP</tspan><tspan class="cls-2" x="0" y="45.46">ENCERE</tspan><tspan class="cls-3" x="127.36" y="45.46">E</tspan><tspan class="cls-2" x="146.67" y="45.46">VESPENCERE</tspan><tspan class="cls-3" x="360.79" y="45.46">E</tspan><tspan class="cls-2" x="380.09" y="45.46">VESPE</tspan><tspan class="cls-2" x="0" y="68.19">NCERE</tspan><tspan class="cls-3" x="107.59" y="68.19">E</tspan><tspan class="cls-2" x="126.89" y="68.19">VESPENCERE</tspan><tspan class="cls-3" x="341.01" y="68.19">E</tspan><tspan class="cls-4" x="360.32" y="68.19">VESPEN</tspan><tspan class="cls-2" x="0" y="90.92">CERE</tspan><tspan class="cls-3" x="84.58" y="90.92">E</tspan><tspan class="cls-4" x="103.89" y="90.92">VESPENCERE</tspan><tspan class="cls-3" x="318.01" y="90.92">E</tspan><tspan class="cls-2" x="337.31" y="90.92">VESPENC</tspan><tspan class="cls-2" x="0" y="113.66">ERE</tspan><tspan class="cls-3" x="61.74" y="113.66">E</tspan><tspan class="cls-2" x="81.05" y="113.66">VESPENCERE</tspan><tspan class="cls-3" x="295.17" y="113.66">E</tspan><tspan class="cls-2" x="314.48" y="113.66">VESPENCE</tspan><tspan class="cls-2" x="0" y="136.39">RE</tspan><tspan class="cls-3" x="41.97" y="136.39">E</tspan><tspan class="cls-2" x="61.27" y="136.39">VESPENCERE</tspan><tspan class="cls-3" x="275.39" y="136.39">E</tspan><tspan class="cls-2" x="294.7" y="136.39">VESPENCER</tspan><tspan class="cls-2" x="0" y="159.12">E</tspan><tspan class="cls-3" x="19.78" y="159.12">E</tspan><tspan class="cls-2" x="39.08" y="159.12">VESPENCERE</tspan><tspan class="cls-3" x="253.2" y="159.12">E</tspan><tspan class="cls-2" x="272.51" y="159.12">VESPENCERE</tspan><tspan class="cls-3" x="0" y="181.85">E</tspan><tspan class="cls-2" x="19.31" y="181.85">VESPENCERE</tspan><tspan class="cls-3" x="233.43" y="181.85">E</tspan><tspan class="cls-2" x="252.73" y="181.85">VESPENCERE</tspan><tspan class="cls-5" x="466.85" y="181.85">E</tspan><tspan class="cls-2" x="0" y="204.58">VESPENCERE</tspan><tspan class="cls-3" x="214.12" y="204.58">E</tspan><tspan class="cls-2" x="233.43" y="204.58">VESPENCERE</tspan><tspan class="cls-3" x="447.54" y="204.58">E</tspan><tspan class="cls-2" x="466.85" y="204.58">V</tspan><tspan class="cls-2" x="0" y="227.31">ESPENCERE</tspan><tspan class="cls-3" x="189.82" y="227.31">E</tspan><tspan class="cls-4" x="209.13" y="227.31">VESPENCERE</tspan><tspan class="cls-3" x="423.25" y="227.31">E</tspan><tspan class="cls-4" x="442.56" y="227.31">VE</tspan><tspan class="cls-2" x="0" y="250.04">SPENCERE</tspan><tspan class="cls-3" x="170.05" y="250.04">E</tspan><tspan class="cls-4" x="189.35" y="250.04">VESPENCERE</tspan><tspan class="cls-3" x="403.47" y="250.04">E</tspan><tspan class="cls-4" x="422.78" y="250.04">VES</tspan><tspan class="cls-2" x="0" y="272.77">PENCERE</tspan><tspan class="cls-3" x="148.93" y="272.77">E</tspan><tspan class="cls-4" x="168.24" y="272.77">VESPENCERE</tspan><tspan class="cls-3" x="382.36" y="272.77">E</tspan><tspan class="cls-4" x="401.66" y="272.77">VESP</tspan><tspan class="cls-2" x="0" y="295.5">ENCERE</tspan><tspan class="cls-3" x="127.36" y="295.5">E</tspan><tspan class="cls-2" x="146.67" y="295.5">VESPENCERE</tspan><tspan class="cls-3" x="360.79" y="295.5">E</tspan><tspan class="cls-2" x="380.09" y="295.5">VESPE</tspan><tspan class="cls-2" x="0" y="318.23">NCERE</tspan><tspan class="cls-3" x="107.59" y="318.23">E</tspan><tspan class="cls-2" x="126.89" y="318.23">VESPENCERE</tspan><tspan class="cls-3" x="341.01" y="318.23">E</tspan><tspan class="cls-4" x="360.32" y="318.23">VESPEN</tspan><tspan class="cls-2" x="0" y="340.96">CERE</tspan><tspan class="cls-3" x="84.58" y="340.96">E</tspan><tspan class="cls-4" x="103.89" y="340.96">VESPENCERE</tspan><tspan class="cls-3" x="318.01" y="340.96">E</tspan><tspan class="cls-2" x="337.31" y="340.96">VESPENC</tspan><tspan class="cls-2" x="0" y="363.69">ERE</tspan><tspan class="cls-3" x="61.74" y="363.69">E</tspan><tspan class="cls-2" x="81.05" y="363.69">VE</tspan><tspan class="cls-6" x="125.12" y="363.69">SPENCERE</tspan><tspan class="cls-7" x="295.17" y="363.69">E</tspan><tspan class="cls-6" x="314.48" y="363.69">VES</tspan><tspan class="cls-8" x="379.66" y="363.69">PENCE</tspan><tspan class="cls-2" x="0" y="386.43">RE</tspan><tspan class="cls-3" x="41.97" y="386.43">E</tspan><tspan class="cls-2" x="61.27" y="386.43">VESPENCERE</tspan><tspan class="cls-3" x="275.39" y="386.43">E</tspan><tspan class="cls-2" x="294.7" y="386.43">VESPENCER</tspan><tspan class="cls-2" x="0" y="409.16">E</tspan><tspan class="cls-3" x="19.78" y="409.16">E</tspan><tspan class="cls-2" x="39.08" y="409.16">VESPENCERE</tspan><tspan class="cls-3" x="253.2" y="409.16">E</tspan><tspan class="cls-2" x="272.51" y="409.16">VESPENCERE</tspan><tspan class="cls-3" x="0" y="431.89">E</tspan><tspan class="cls-2" x="19.31" y="431.89">VESPENCERE</tspan><tspan class="cls-3" x="233.43" y="431.89">E</tspan><tspan class="cls-2" x="252.73" y="431.89">VESPENCERE</tspan><tspan class="cls-5" x="466.85" y="431.89">E</tspan><tspan class="cls-2" x="0" y="454.62">VESPENCERE</tspan><tspan class="cls-3" x="214.12" y="454.62">E</tspan><tspan class="cls-2" x="233.43" y="454.62">VESPENCERE</tspan><tspan class="cls-3" x="447.54" y="454.62">E</tspan><tspan class="cls-2" x="466.85" y="454.62">V</tspan><tspan class="cls-2" x="0" y="477.35">ESPENCERE</tspan><tspan class="cls-3" x="189.82" y="477.35">E</tspan><tspan class="cls-4" x="209.13" y="477.35">VESPENCERE</tspan><tspan class="cls-3" x="423.25" y="477.35">E</tspan><tspan class="cls-4" x="442.56" y="477.35">VE</tspan><tspan class="cls-2" x="0" y="500.08">SPENCERE</tspan><tspan class="cls-3" x="170.05" y="500.08">E</tspan><tspan class="cls-4" x="189.35" y="500.08">VESPENCERE</tspan><tspan class="cls-3" x="403.47" y="500.08">E</tspan><tspan class="cls-4" x="422.78" y="500.08">VES</tspan><tspan class="cls-2" x="0" y="522.81">PENCERE</tspan><tspan class="cls-3" x="148.93" y="522.81">E</tspan><tspan class="cls-4" x="168.24" y="522.81">VESPENCERE</tspan><tspan class="cls-3" x="382.36" y="522.81">E</tspan><tspan class="cls-4" x="401.66" y="522.81">VESP</tspan><tspan class="cls-2" x="0" y="545.54">ENCERE</tspan><tspan class="cls-3" x="127.36" y="545.54">E</tspan><tspan class="cls-2" x="146.67" y="545.54">VESPENCERE</tspan><tspan class="cls-3" x="360.79" y="545.54">E</tspan><tspan class="cls-2" x="380.09" y="545.54">VESPE</tspan><tspan class="cls-2" x="0" y="568.27">NCERE</tspan><tspan class="cls-3" x="107.59" y="568.27">E</tspan><tspan class="cls-2" x="126.89" y="568.27">VESPENCERE</tspan><tspan class="cls-3" x="341.01" y="568.27">E</tspan><tspan class="cls-4" x="360.32" y="568.27">VESPEN</tspan><tspan class="cls-2" x="0" y="591">CERE</tspan><tspan class="cls-3" x="84.58" y="591">E</tspan><tspan class="cls-4" x="103.89" y="591">VESPENCERE</tspan><tspan class="cls-3" x="318.01" y="591">E</tspan><tspan class="cls-2" x="337.31" y="591">VESPENC</tspan><tspan class="cls-2" x="0" y="613.73">ERE</tspan><tspan class="cls-3" x="61.74" y="613.73">E</tspan><tspan class="cls-2" x="81.05" y="613.73">VESPENCERE</tspan><tspan class="cls-3" x="295.17" y="613.73">E</tspan><tspan class="cls-2" x="314.48" y="613.73">VESPENCE</tspan><tspan class="cls-2" x="0" y="636.47">RE</tspan><tspan class="cls-3" x="41.97" y="636.47">E</tspan><tspan class="cls-2" x="61.27" y="636.47">VESPENCERE</tspan><tspan class="cls-3" x="275.39" y="636.47">E</tspan><tspan class="cls-2" x="294.7" y="636.47">VESPENCER</tspan><tspan class="cls-2" x="0" y="659.2">E</tspan><tspan class="cls-3" x="19.78" y="659.2">E</tspan><tspan class="cls-2" x="39.08" y="659.2">VESPENCERE</tspan><tspan class="cls-3" x="253.2" y="659.2">E</tspan><tspan class="cls-2" x="272.51" y="659.2">VESPENCERE</tspan><tspan class="cls-3" x="0" y="681.93">E</tspan><tspan class="cls-2" x="19.31" y="681.93">VESPENCERE</tspan><tspan class="cls-3" x="233.43" y="681.93">E</tspan><tspan class="cls-2" x="252.73" y="681.93">VESPENCERE</tspan><tspan class="cls-5" x="466.85" y="681.93">E</tspan><tspan class="cls-2" x="0" y="704.66">VESPENCERE</tspan><tspan class="cls-3" x="214.12" y="704.66">E</tspan><tspan class="cls-2" x="233.43" y="704.66">VESPENCERE</tspan><tspan class="cls-3" x="447.54" y="704.66">E</tspan><tspan class="cls-2" x="466.85" y="704.66">V</tspan><tspan class="cls-2" x="0" y="727.39">ESPENCERE</tspan><tspan class="cls-3" x="189.82" y="727.39">E</tspan><tspan class="cls-4" x="209.13" y="727.39">VESPENCERE</tspan><tspan class="cls-3" x="423.25" y="727.39">E</tspan><tspan class="cls-4" x="442.56" y="727.39">VE</tspan><tspan class="cls-2" x="0" y="750.12">SPENCERE</tspan><tspan class="cls-3" x="170.05" y="750.12">E</tspan><tspan class="cls-4" x="189.35" y="750.12">VESPENCERE</tspan><tspan class="cls-3" x="403.47" y="750.12">E</tspan><tspan class="cls-4" x="422.78" y="750.12">VES</tspan></text></g></g></svg>