<?xml version="1.0" encoding="utf-8"?>
<!-- Generator: Adobe Illustrator 24.1.0, SVG Export Plug-In . SVG Version: 6.00 Build 0)  -->
<svg version="1.1" xmlns="http://www.w3.org/2000/svg" xmlns:xlink="http://www.w3.org/1999/xlink" x="0px" y="0px"
	 viewBox="0 0 80.8 80.7" style="enable-background:new 0 0 80.8 80.7;" xml:space="preserve">
<style type="text/css">
	.st0{display:none;}
	.st1{display:inline;}
	.st2{enable-background:new    ;}
</style>
<g id="Layer_1">
	<g id="Layer_3">
		<path d="M4.7,38.4c-1.1,0.2-0.1,1.6,0,2.8c0.1,1.1,0,2.9,1,2.8c0.8,0,1.6-1.3,2-2.7c0.5-1.6,0.5-3,1.5-3c1.2-0.1,3.5,1.3,3.6,3.2
			c0.1,1.9-1.7,2.4-2.9,2.5c-0.4-0.3-0.5-0.1-0.2-0.5c0.8-0.1,2.4-0.8,2.3-2c-0.1-1-1.8-1.7-2.5-1.7c-0.6,0-0.7,0.6-1.1,1.9
			c-0.5,1.7-1.2,3.9-2.3,4c-1.3,0.1-4.3-2.3-4.4-4.5c-0.1-1.9,3-1.1,4.5-1.3C6.6,39.8,5.1,37.9,4.7,38.4z M12.9,46.5
			c1.2,0.7-0.5,2.3,0,3.6c0.6,1.6,0.4,2.4-0.8,2.8c-1.7,0.6-1.9-0.5-2.5-2.3c-0.3-1-0.7-1.5-1.7-1.8c-1.7-0.6-1.9,1.1-3.6,0.9
			c-0.5-0.1-1.7-2.3-1.2-2.6c1.2-0.7,2-0.3,3.4-0.5c1.4-0.2,2.6,3.6,3.9,3C12.1,48.7,11.7,45.8,12.9,46.5z M8,48
			c-0.7,0.6,1.7,1.5,1.9,2.4c0.4,1.2,0.9,3,2.1,2.6c0.9-0.3,1.2-2.2,0.8-3.2c-0.3-0.7-0.8-0.3-1.4-0.8C9.9,47.5,9.2,47,8,48z
			 M15.1,59.8c-1.4-1.3-1.4-1-3.3-1.6c-1.5-0.5-3.6-0.9-3.7,0.8c-0.1,2.2,2.3,1.8,3.3,3.8c0.2,0.4-0.5,0.9-0.9,0.6
			c-1.1-0.8-1.2-1-2-2.1S7.8,60,8.1,58.7c0.4-1.4,0.9-0.6,2.2-1.2c1.3-0.6,1.7,0.3,3-0.3s0.7-2.2,2-1.9c1.3,0.3,1,0.7,1.7,1.7
			c0.8,1,2.6,0.4,3,1.7c0.1,0.4-3.1,2.4-3.4,2.1c-1.6-1.4,1.2-5.4-0.7-6.3c-1.2-0.5-1.6,1.6-1.6,2.9c0,1.9,0,1.1,1.3,2.5
			C15.9,60.1,15.4,60.1,15.1,59.8z M14.7,67.1c0.6-1.3-0.4-1.9,0.7-2.8c1.1-0.9,2.1,0.3,3.2-0.6c1.1-0.9,0.3-1.7,1.7-2.2
			c0.6-0.2,1.3-0.6,1.6,0.1c-0.3,0.9-0.3,2.9-0.7,4.3c-0.5,1.6-2.4,2.7-2.6,3.1l0.5,0.3c0.7-0.7,2.5-1,3.6-1.9
			c1.3-1.1,0.5-2.1,2-2.8c0.5-0.2,1.1,0,0.8,0.4c-0.7,1.2-0.2,2.1-1.2,3c-1.1,0.9-1.1,0.9-2.2,1.8c-1.1,0.9-2.5-1.6-3.8-1.2
			c-0.6,0.2-1.5,2.3-1.8,1.7c0.3-0.8,1.4-3.2,1.9-4.6c0.5-1.7,0.4-3.6,0.6-4.1l1.7,0.9c-0.8,0.8-2.7,0.8-3.8,1.8
			c-1.3,1.2-1.3,1.1-2.6,2.4C14,66.8,14.5,67.6,14.7,67.1z M29.6,73.7c-1.1,1.3-1.4,2.4-3.3,1.8c-1-0.3-0.5-1.9-0.7-2.6
			c-0.3-0.7-0.7-1.1-0.4-2c0.4-1.2,0.3-3,1.3-3.7c1-0.7,2.9-1.5,4.3-1c1.7,0.6,1.8,2.5,1.3,4.1c-0.4,0.3-0.3,0.4-0.6,0
			c0.2-1,0.1-2.9-1.1-3.3c-1-0.3-2.5,0.9-3.2,1.5c-0.7,0.6-0.9,1.7-1.2,2.7c-0.4,1.3,0.1,1,1.5,1.4c1,0.4,0.2,0.7,1-0.2
			C28.4,72.2,29.6,73.1,29.6,73.7z M39.8,72.3c-1.9,0.3-1.7,0.5-3.4,1.6c-1.3,0.8-2.9,2.2-1.7,3.2c1.7,1.4,2.8-0.7,4.9-0.2
			c0.5,0.1,0.4,1-0.1,1.1c-1.3,0.3-1.5,0.3-2.9,0.3c-1.3,0-1.5-0.3-2.2-1.4c-0.8-1.2,0.1-1.1,0.5-2.5c0.3-1.4,1.3-1.2,1.6-2.5
			c0.3-1.4-1.3-1.9-0.2-2.8c1-0.8,1.1-0.3,2.4-0.3c1.3,0,2.1-1.8,3.2-1.2c0.5,0.2-0.1,3.9-0.6,4c-2,0.4-3.5-4.3-5.3-3.4
			c-1.2,0.6,0.2,2.3,1.2,3.1c1.5,1.3,0.9,0.7,2.8,0.5C40.3,71.8,40.2,72.2,39.8,72.3z M46.1,73.8c-0.6,1.8-0.9,1.5-1.3,3.4
			c-0.1,0.5-0.2,0.7-0.4,0.2c-0.5-1.3,0.9-1.4,0.9-2.8c0-1.4-0.9-1.4-0.9-2.8c0-1.4-1.3-1.8-0.5-2.9c0.8-1.1,1.1-1.8,2.4-2.1
			c1.5-0.4,4.4,1.4,4.7,2.6c0.3,1.2-3.3,1.2-4.3,1.7c0.5,0.1,4.4,1.7,4.4,3.1c0,1-1.2,2.4-1.1,2.7c-0.4,0.2-1,1.1-1.5,1
			c-0.1-0.3-0.5-2.5-0.5-3.5c0-1.2-0.3-2.5-1.5-2.2C46,72.3,46.4,73.1,46.1,73.8z M44.1,73.3c0.5,0.7,1.6-1.5,2.4-1.7
			c1.3-0.3,3.1-0.6,2.9-1.7c-0.2-0.8-1.9-1.4-2.8-1.2c-0.9,0.2-0.5,0.9-1.3,1.5C43.9,71.4,43.3,72.1,44.1,73.3z M56.9,67.7
			c-1.4,1.3-1.2,1.3-2.1,3c-0.7,1.4-1.3,3.4,0.3,3.7c2.2,0.4,2.1-2.1,4.2-2.7c0.4-0.1,0.9,0.6,0.5,0.9c-0.9,1-1.1,1.1-2.3,1.8
			c-1.2,0.7-1.4,0.5-2.7,0c-1.3-0.6-0.5-1-0.9-2.4c-0.5-1.4,0.4-1.7,0-3c-0.5-1.4-2.2-0.9-1.7-2.3c0.4-1.2,0.8-0.9,1.9-1.5
			c1.1-0.7,0.8-2.6,2.1-2.8c0.5-0.1,2,3.4,1.6,3.7c-1.5,1.4-5.3-1.9-6.3-0.1c-0.7,1.2,1.4,1.9,2.7,2.1c2,0.3,1.1,0,2.7-1.1
			C57.2,66.9,57.3,67.4,56.9,67.7z M63.6,62.3c-1,1.7-0.7,1.6-1.1,3.5c-0.3,1.5-0.3,3.7,1.2,3.5c2.2-0.3,1.4-2.6,3.2-3.8
			c0.4-0.3,1,0.4,0.7,0.8c-0.6,1.2-0.8,1.4-1.8,2.3c-1,0.9-1.2,0.9-2.6,0.7c-1.4-0.2-0.7-0.8-1.5-2c-0.8-1.2,0-1.7-0.8-2.9
			c-0.8-1.2-2.3-0.3-2.2-1.7c0.1-1.3,0.5-1.1,1.4-2c0.9-0.9,0.1-2.7,1.2-3.2c0.4-0.2,2.8,2.8,2.5,3.1c-1.1,1.7-5.6-0.5-6.1,1.5
			c-0.4,1.3,1.9,1.4,3.2,1.2c1.9-0.3,1.1-0.3,2.3-1.8C63.6,61.4,63.9,61.9,63.6,62.3z M71.5,59.4c-1.4,0-1.6,1.3-2.9,0.8
			c-1.3-0.5-0.7-2-2.1-2.5c-1.3-0.5-1.6,0.5-2.7-0.4c-0.4-0.3-0.2-1.3,0.3-1.2c2.2,0.3,2.3,0.5,4.4,1.3c1.1,0.4,1.8,2.4,2.2,2.6
			l0.3-0.5c-0.5-0.6-0.4-2.3-1.2-3.5c-1.3-2-2.3-1.4-3.2-3.6c-0.2-0.5-0.1-1.4,0.3-1c1.3,1,2.1,0.7,3,2c0.8,1.4,0.8,1.4,1.6,2.8
			c0.8,1.4-2.2,3.3-1.3,4.7C70.5,61,72.1,59.5,71.5,59.4z M71.7,46.3c0,1.9,0.2,1.7,0.9,3.5c0.6,1.4,1.8,3.2,3,2.2
			c1.7-1.4-0.2-2.9,0.7-5c0.2-0.4,1-0.2,1,0.3c0.1,1.3,0.1,1.6-0.2,2.9c-0.3,1.3-0.6,1.4-1.8,2c-1.3,0.6-1-0.3-2.3-0.9
			c-1.3-0.6-0.9-1.4-2.2-2s-2.1,1-2.8-0.3c-0.6-1.1-0.1-1.1,0.1-2.4s-1.4-2.2-0.7-3.3c0.2-0.4,3.8,0.8,3.8,1.3c0,2-4.9,2.6-4.2,4.6
			c0.4,1.3,2.3,0.2,3.3-0.7c1.5-1.3,0.8-0.8,1-2.7C71.3,45.5,71.7,45.8,71.7,46.3z M76.1,42.6c1.1-0.2,0.1-1.6,0.1-2.8
			c-0.1-1.1,0-2.8-1-2.7c-0.8,0-1.6,1.3-2,2.7c-0.5,1.6-0.5,3-1.5,3c-1.2,0.1-3.5-1.3-3.6-3.2c-0.1-1.9,1.7-2.4,2.9-2.5
			c0.4,0.3,0.5,0.1,0.2,0.5c-0.8,0.1-2.4,0.8-2.3,2c0.1,1,1.8,1.7,2.5,1.7c0.6,0,0.7-0.6,1.1-1.9c0.5-1.8,1.2-4,2.3-4.1
			c1.3-0.1,4.3,2.3,4.4,4.5c0.1,1.9-3.1,1.1-4.6,1.3C74.3,41.2,75.8,43,76.1,42.6z M68,34.5c-1.2-0.7,0.5-2.3,0-3.6
			c-0.6-1.6-0.4-2.4,0.8-2.8c1.7-0.6,1.9,0.5,2.5,2.3c0.3,1,0.7,1.5,1.7,1.8c1.7,0.6,1.9-1.1,3.6-0.9c0.5,0.1,1.7,2.3,1.2,2.6
			c-1.2,0.7-2,0.3-3.4,0.5c-1.4,0.2-2.6-3.6-3.9-3C68.8,32.3,69.2,35.2,68,34.5z M72.9,33c0.7-0.6-1.7-1.5-1.9-2.4
			c-0.4-1.2-0.9-3-2.1-2.6c-0.9,0.3-1.2,2.2-0.8,3.2c0.3,0.7,0.8,0.3,1.4,0.8C71,33.5,71.7,34,72.9,33z M65.8,21
			c1.4,1.4,1.5,1.1,3.3,1.8c1.5,0.5,3.6,0.9,3.7-0.6c0.1-2.2-2.3-1.8-3.2-3.9c-0.2-0.4,0.5-0.9,0.9-0.6c1.1,0.8,1.2,1,2,2.1
			c0.8,1.1,0.7,1.4,0.3,2.6c-0.4,1.3-0.9,0.6-2.2,1.1c-1.3,0.6-1.7-0.3-3,0.3s-0.7,2.2-2.1,1.9c-1.3-0.3-0.9-0.7-1.7-1.7
			c-0.8-1.1-2.6-0.5-2.9-1.8c-0.1-0.4,3.1-2.3,3.4-2c1.5,1.4-1.3,5.4,0.5,6.3c1.2,0.5,1.6-1.6,1.7-2.9c0-2,0-1.2-1.3-2.6
			C64.9,20.5,65.5,20.7,65.8,21z M66.3,13.8c-0.7,1.3,0.4,1.9-0.7,2.9c-1.1,0.9-2.1-0.3-3.2,0.6c-1.1,0.9-0.3,1.7-1.7,2.2
			c-0.6,0.2-1.3,0.6-1.6-0.1c0.3-0.9,0.3-2.9,0.7-4.3c0.5-1.6,2.4-2.7,2.6-3.1l-0.5-0.3c-0.7,0.7-2.5,1-3.6,1.9
			c-1.3,1.1-0.5,2.1-2,2.8c-0.5,0.2-1.1,0-0.8-0.4c0.7-1.2,0.2-2.1,1.2-3c1.1-0.9,1.1-0.9,2.2-1.8c1.1-0.9,2.5,1.6,3.8,1.2
			c0.6-0.2,1.5-2.3,1.8-1.7c-0.3,0.8-1.4,3.2-1.8,4.6c-0.5,1.7-0.3,3.5-0.4,4l-1.7-0.8c0.8-0.8,2.7-0.8,3.8-1.8
			c1.3-1.2,1.4-1.1,2.6-2.4C67.1,14.1,66.5,13.3,66.3,13.8z M51.3,7.2c1.1-1.3,1.6-2.5,3.4-1.9c1,0.3,0.4,1.9,0.7,2.6
			c0.3,0.7,0.7,1.1,0.4,2c-0.4,1.2-0.4,3-1.4,3.7c-1,0.7-3,1.4-4.3,0.9c-1.7-0.6-1.6-2.5-1.2-4.1c0.4-0.4,0.3-0.4,0.6,0.1
			c-0.3,1-0.2,2.9,1,3.3c1,0.4,2.5-0.8,3.3-1.4c0.7-0.6,0.9-1.7,1.3-2.7c0.5-1.3-0.2-0.9-1.6-1.5c-1-0.4,0-0.9-0.8,0
			C52.4,8.3,51.3,7.7,51.3,7.2z M41.1,8.5C43.1,8.2,42.9,8,44.6,7c1.3-0.8,2.9-2.1,1.8-3.2c-1.6-1.5-2.8,0.6-4.9,0
			c-0.5-0.1-0.4-1,0.1-1.1c1.3-0.3,1.5-0.3,2.9-0.2s1.5,0.3,2.2,1.5c0.8,1.2-0.1,1.1-0.5,2.4c-0.4,1.4-1.3,1.1-1.6,2.5
			c-0.4,1.4,1.3,1.9,0.2,2.8c-1,0.8-1.1,0.3-2.4,0.2c-1.3-0.1-2,1.7-3.2,1.2c-0.4-0.2,0.2-3.9,0.6-4c2-0.3,3.4,4.4,5.2,3.5
			c1.2-0.6-0.2-2.3-1.2-3.2c-1.5-1.3-0.9-0.8-2.8-0.6C40.5,8.8,40.8,8.5,41.1,8.5z M35,6.9c0.6-1.8,0.9-1.5,1.3-3.4
			c0.1-0.5,0.2-0.7,0.4-0.2c0.5,1.3-0.9,1.4-0.9,2.8c0,1.4,0.9,1.4,0.9,2.8s1.3,1.8,0.5,2.9c-0.8,1.1-1.1,1.8-2.4,2.1
			c-1.5,0.4-4.4-1.4-4.7-2.6s3.3-1.2,4.3-1.7C33.9,9.5,30,7.9,30,6.5c0-1,1.2-2.4,1.1-2.7c0.4-0.2,1-1.1,1.5-1
			c0.1,0.3,0.5,2.5,0.5,3.5c0,1.2,0.3,2.5,1.5,2.2C35.1,8.4,34.7,7.6,35,6.9z M37,7.5c-0.4-0.7-1.6,1.4-2.4,1.6
			c-1.3,0.3-3.1,0.6-2.9,1.7c0.2,0.8,1.9,1.4,2.8,1.2c0.9-0.2,0.5-0.9,1.2-1.4C37.1,9.4,37.8,8.8,37,7.5z M24.1,12.9
			c1.5-1.3,1.2-1.3,2.1-3.1c0.7-1.4,1.3-3.4-0.3-3.7c-2.2-0.4-2.1,2.1-4.2,2.7c-0.4,0.1-0.9-0.6-0.5-0.9c0.9-1,1.1-1.1,2.3-1.8
			s1.4-0.5,2.7,0c1.3,0.5,0.5,1,0.9,2.3c0.4,1.4-0.5,1.6,0,3c0.4,1.4,2.1,0.9,1.7,2.3c-0.4,1.2-0.8,0.9-1.9,1.5
			c-1.1,0.6-0.8,2.6-2.1,2.8c-0.5,0.1-2-3.4-1.6-3.7c1.5-1.4,5.3,1.9,6.3,0.1c0.7-1.1-1.4-1.8-2.7-2c-1.9-0.3-1.1-0.1-2.7,1
			C23.8,13.6,23.8,13.2,24.1,12.9z M17.4,18.2c1-1.7,0.7-1.6,1.1-3.5c0.3-1.5,0.3-3.7-1.2-3.5c-2.2,0.3-1.4,2.6-3.2,3.8
			c-0.4,0.3-1-0.4-0.7-0.8c0.6-1.2,0.8-1.4,1.8-2.3s1.2-0.9,2.6-0.7c1.4,0.2,0.7,0.8,1.5,2c0.8,1.2,0,1.7,0.8,2.9s2.3,0.3,2.2,1.7
			c-0.1,1.3-0.5,1.1-1.4,2c-0.9,0.9-0.1,2.7-1.2,3.2c-0.4,0.2-2.8-2.8-2.5-3.1c1.1-1.7,5.6,0.5,6.1-1.5c0.4-1.3-1.9-1.4-3.2-1.2
			c-1.9,0.3-1.1,0.3-2.3,1.8C17.4,19.1,17.1,18.6,17.4,18.2z M9.4,21.1c1.4,0,1.5-1.3,2.9-0.8c1.3,0.5,0.7,2,2.1,2.5
			c1.3,0.5,1.6-0.5,2.7,0.4c0.4,0.3,0.2,1.3-0.3,1.2c-2.2-0.3-2.3-0.5-4.4-1.3c-1-0.4-1.8-2.4-2.2-2.6l-0.3,0.5
			c0.5,0.6,0.4,2.3,1.2,3.5c1.3,2,2.3,1.4,3.2,3.6c0.2,0.5,0.1,1.4-0.3,1c-1.2-1-2.1-0.6-3-2c-0.8-1.4-0.8-1.4-1.6-2.8
			c-0.8-1.4,2.2-3.3,1.3-4.6C10.4,19.6,8.8,21.1,9.4,21.1z M8.9,34.5c0.1-2,0-1.8-0.7-3.7c-0.5-1.5-1.5-3.3-2.8-2.4
			c-1.8,1.3,0,2.9-1,4.9c-0.2,0.4-1,0.1-1.1-0.4c0-1.3,0-1.6,0.4-2.9c0.4-1.3,0.7-1.4,1.9-1.8c1.3-0.5,1,0.4,2.3,1.1
			c1.3,0.7,0.8,1.5,2.1,2.2c1.3,0.7,2.2-0.8,2.8,0.5c0.6,1.1,0.1,1.1-0.3,2.4c-0.4,1.2,1.2,2.3,0.5,3.4c-0.3,0.4-3.7-1-3.7-1.5
			c0.1-2,5.1-2.3,4.6-4.3c-0.3-1.3-2.3-0.3-3.4,0.4c-1.6,1.1-0.9,0.7-1.2,2.7C9.2,35.4,8.8,35,8.9,34.5z"/>
	</g>
</g>
<g id="Layer_2" class="st0">
	<g id="Layer_2_2_" class="st1">
		<g>
			<g id="Layer_3_7_">
				<g class="st2">
					<path d="M5.6,42.4c-1.1-1.1-1.6-1.2-1.5,0.2c0.1,1.2,0.6,2.6,1.6,3.8c0.8,0.9,1.2,1,1.6,0c0.5-1.1,1-1.2,2-0.4
						c1.2,0.9,2.4,2.4,2.5,4.3c0.1,1.9-0.9,2.1-2.1,1.3c0-0.3-0.1-0.7-0.1-1c0.8,0.5,1.4,0.4,1.3-0.8c-0.1-1.1-0.7-2-1.4-2.5
						c-0.6-0.5-0.9-0.5-1.3,0.5c-0.5,1.2-1.2,1.1-2.3-0.1c-1.3-1.4-2.6-4.1-2.7-6.5c-0.1-2.1,0.9-1.5,2.4,0.1
						C5.6,41.6,5.6,42,5.6,42.4z"/>
				</g>
				<g class="st2">
					<path d="M12.4,56.2c0.3,0.9,0.6,1.8,0.9,2.6c0.6,1.6,0,2.3-1.2,2.1c-1.7-0.3-3-2-3.6-4.2c-0.2-0.8-0.5-1.6-0.7-2.4
						c-1.2-0.9-2.3-2-3.5-3.4c-0.1-0.5-0.3-1-0.4-1.5C6.7,52.9,9.6,55.1,12.4,56.2z M8.7,55.1c0.2,0.7,0.4,1.4,0.6,2
						c0.4,1.4,1.2,2.5,2.4,2.8c0.9,0.2,1.1-0.4,0.7-1.5c-0.2-0.5-0.3-1-0.5-1.6C10.8,56.4,9.8,55.8,8.7,55.1z"/>
				</g>
				<g class="st2">
					<path d="M14.3,67.6c-0.8-0.9-1.5-1.9-2.3-3.1c-1-0.1-1.9-0.2-2.9-0.4c0.9,1.5,1.8,2.9,2.7,4.1c-0.3,0-0.6-0.1-0.9-0.1
						c-1.1-1.5-2.1-3.2-3.2-5.3c2.6,0.9,5.1,1.2,7.7,0.8c1,1.3,2.1,2.4,3.1,3.4c-0.3,0.1-0.5,0.2-0.8,0.2c-0.8-0.8-1.7-1.7-2.5-2.8
						c-0.8,0.1-1.6,0.1-2.4,0.1c0.8,1.1,1.5,2.1,2.3,3C14.8,67.6,14.6,67.6,14.3,67.6z"/>
				</g>
				<g class="st2">
					<path d="M13.7,71.5c2.2-0.7,4.3-1.7,6.5-3.1c0.4,0.2,0.7,0.3,1.1,0.5c-0.6,1.5-1.9,4.2-2.3,4.6l0,0c0.7-0.4,1.9-1,3-1.6
						c0.9-0.5,1.7-1.1,2.6-1.8c0.3,0.1,0.5,0.2,0.8,0.2c-2.2,1.7-4.3,3-6.5,4c-0.3-0.1-0.7-0.3-1-0.4c0.6-0.9,2-3.9,2.4-4.5l0,0
						c-0.8,0.6-1.9,1.2-3,1.7c-0.9,0.4-1.7,0.8-2.6,1.1C14.4,71.8,14,71.6,13.7,71.5z"/>
				</g>
				<g class="st2">
					<path d="M30.8,74.9c-1.1,1-2.4,1.4-4.3,1.2c-2-0.3-2.4-1.1-1.8-2.2c0.8-1.4,3-3.3,5.7-3.5c1.7-0.1,2.4,0.8,1.9,2.1
						c-0.3,0-0.7,0-1,0c0.2-0.8-0.1-1.4-1.3-1.3c-1.9,0.1-3.6,1.6-4.3,2.8c-0.4,0.8-0.3,1.5,1.1,1.6c1,0.1,2-0.1,2.8-0.8
						C30,74.9,30.4,74.9,30.8,74.9z"/>
				</g>
				<g class="st2">
					<path d="M40,73.5c-1.3,0.2-2.6,0.3-3.9,0.5c-0.2,0.9-0.5,1.7-0.7,2.6c1.5,0,2.9-0.1,4.4-0.1c-0.1,0.3-0.3,0.6-0.4,0.9
						c-1.8,0-3.5-0.1-5.3-0.1c0.7-2.1,1.3-4.5,2-7.1c1.7-0.4,3.4-0.9,5.1-1.4c-0.1,0.4-0.1,0.7-0.2,1.1c-1.4,0.3-2.7,0.7-4.1,1
						c-0.2,0.8-0.5,1.6-0.7,2.4c1.3-0.2,2.6-0.4,3.9-0.6C40.1,72.9,40,73.2,40,73.5z"/>
				</g>
				<g class="st2">
					<path d="M45.1,72.8c0,1.5,0.1,3,0.1,4.5c-0.3,0.1-0.7,0.2-1,0.2c-0.1-3.3-0.1-6.4-0.2-9.6c0.9-0.5,1.8-1,2.7-1.5
						c1.5-0.9,2.5-0.5,2.8,1c0.3,1.5-0.3,2.8-1.3,3.5c0.5,0,1.3,0.3,1.3,2.1c0,1.3,0,2.2,0.1,2.6c-0.3,0.1-0.7,0.2-1,0.3
						c-0.1-0.4-0.2-1.3-0.2-2.6c0-1.5-0.5-2.1-1.7-1.5C46.2,72.3,45.6,72.5,45.1,72.8z M45.1,71.8c0.5-0.2,1.1-0.5,1.6-0.8
						c1.3-0.6,2-1.6,1.8-3c-0.2-1-0.8-1.2-1.7-0.7c-0.6,0.4-1.2,0.7-1.8,1.1C45,69.5,45.1,70.6,45.1,71.8z"/>
				</g>
				<g class="st2">
					<path d="M57.7,64.3c-1.1,1-2.3,2.1-3.4,3.1c0.3,1.3,0.7,2.7,1,4.1c1.3-1.2,2.6-2.4,3.9-3.5c0.1,0.4,0.1,0.9,0.2,1.3
						c-1.6,1.4-3.1,2.9-4.7,4.3c-0.9-3.9-1.8-7.5-2.7-10.9c1.5-1.5,3-3,4.5-4.5c0.1,0.4,0.2,0.8,0.3,1.2c-1.2,1.2-2.4,2.4-3.6,3.6
						c0.3,1.1,0.5,2.2,0.8,3.3c1.1-1.1,2.3-2.2,3.4-3.3C57.5,63.5,57.6,63.9,57.7,64.3z"/>
				</g>
				<g class="st2">
					<path d="M64.6,56.3c-0.9,1.1-1.8,2.4-2.7,3.7c0.6,1.2,1.1,2.4,1.7,3.7c1-1.5,2.1-2.9,3.1-4.1c0.1,0.4,0.3,0.9,0.4,1.3
						c-1.3,1.5-2.5,3.1-3.8,4.9c-1.6-3.5-3.1-6.8-4.7-9.7c1.2-1.8,2.4-3.5,3.6-5.1c0.2,0.3,0.3,0.7,0.5,1c-1,1.2-1.9,2.5-2.9,3.9
						c0.5,0.9,1,1.9,1.5,2.9c0.9-1.3,1.8-2.6,2.7-3.7C64.2,55.5,64.4,55.9,64.6,56.3z"/>
				</g>
				<g class="st2">
					<path d="M71.5,55.6c-2.6-2.7-5.3-4.8-7.9-6.4c0.2-0.4,0.3-0.7,0.5-1.1c1.4,0.8,2.7,1.8,4.1,3c1.1,0.9,2.4,2.3,2.8,2.8l0,0
						c-0.5-1-1.2-2.8-2-4.7c-0.8-2-1.7-4-2.5-5.9c0.2-0.3,0.3-0.7,0.5-1c1.7,3.8,3.3,8,5,12.3C71.8,55.1,71.7,55.3,71.5,55.6z"/>
				</g>
				<g class="st2">
					<path d="M72.9,40.6c-0.3,1.1-0.5,2.2-0.8,3.4c1,1.2,1.9,2.6,2.9,4c0.3-1.2,0.6-2.4,0.9-3.5c0.3,0.5,0.5,1,0.8,1.5
						c-0.4,1.3-0.7,2.6-1.1,4c-2.6-4.1-5.2-7.3-7.8-9.7c0.3-1.7,0.7-3.4,1-4.9c0.3,0.3,0.5,0.6,0.8,0.9c-0.3,1.2-0.5,2.5-0.8,3.9
						c0.8,0.8,1.6,1.7,2.4,2.7c0.3-1.2,0.5-2.3,0.8-3.5C72.3,39.8,72.6,40.2,72.9,40.6z"/>
				</g>
				<g class="st2">
					<path d="M75.2,38.5c1.1,1.1,1.6,1.2,1.6,0c-0.1-1.2-0.6-2.7-1.6-3.8c-0.8-0.9-1.2-1-1.6,0c-0.5,1.1-1,1.2-2,0.4
						c-1.2-0.9-2.4-2.4-2.5-4.4c-0.1-1.9,0.9-2.1,2.1-1.3c0,0.3,0.1,0.7,0.1,1c-0.8-0.5-1.4-0.4-1.3,0.8c0.1,1.1,0.7,2,1.4,2.5
						c0.6,0.5,0.9,0.5,1.3-0.5c0.5-1.3,1.2-1.2,2.3,0c1.3,1.4,2.6,4.1,2.7,6.5c0.1,2.1-0.9,1.5-2.4-0.1
						C75.3,39.3,75.2,38.9,75.2,38.5z"/>
				</g>
				<g class="st2">
					<path d="M68.5,24.8c-0.3-0.9-0.6-1.8-0.9-2.6c-0.6-1.6,0-2.3,1.2-2.1c1.7,0.3,3,2.1,3.6,4.2c0.2,0.8,0.5,1.6,0.7,2.4
						c1.2,0.9,2.3,2,3.5,3.4c0.1,0.5,0.3,1,0.4,1.5C74.2,28.1,71.3,25.9,68.5,24.8z M72.2,25.9c-0.2-0.7-0.4-1.4-0.6-2
						c-0.4-1.4-1.2-2.5-2.4-2.8c-0.9-0.2-1.1,0.4-0.7,1.5c0.2,0.5,0.3,1.1,0.5,1.6C70.1,24.6,71.1,25.2,72.2,25.9z"/>
				</g>
				<g class="st2">
					<path d="M66.6,13.2c0.8,1,1.5,2,2.3,3.2c1,0.1,1.9,0.3,2.9,0.5c-0.9-1.5-1.7-2.9-2.6-4.1c0.3,0,0.6,0.1,0.9,0.1
						c1,1.5,2.1,3.2,3.1,5.3c-2.6-1-5.2-1.4-7.8-1.1c-1-1.3-2-2.5-3-3.5c0.3-0.1,0.5-0.2,0.8-0.2c0.8,0.8,1.6,1.7,2.4,2.8
						c0.8-0.1,1.6-0.1,2.4-0.1c-0.8-1.1-1.5-2.1-2.3-3C66,13.1,66.3,13.1,66.6,13.2z"/>
				</g>
				<g class="st2">
					<path d="M67.3,9.4c-2.2,0.7-4.3,1.7-6.5,3.1c-0.4-0.2-0.7-0.3-1.1-0.5c0.6-1.5,1.9-4.2,2.3-4.6c0,0,0,0,0,0
						c-0.7,0.4-1.9,1-3,1.6c-0.9,0.5-1.7,1.1-2.6,1.8c-0.3-0.1-0.5-0.2-0.8-0.2c2.2-1.7,4.3-3,6.5-4c0.3,0.1,0.7,0.3,1,0.5
						c-0.6,0.9-2,3.9-2.3,4.6l0,0c0.8-0.6,1.9-1.2,3-1.7c0.9-0.4,1.7-0.8,2.6-1.1C66.7,9,67,9.2,67.3,9.4z"/>
				</g>
				<g class="st2">
					<path d="M50.2,5.7c1.1-1,2.5-1.3,4.3-1.1c2,0.3,2.3,1.1,1.7,2.2c-0.8,1.4-3.1,3.3-5.8,3.4c-1.7,0.1-2.3-0.8-1.9-2.1
						c0.3,0,0.7,0.1,1,0.1c-0.3,0.8,0,1.4,1.2,1.4c1.9,0,3.6-1.5,4.3-2.8c0.5-0.8,0.3-1.4-1.1-1.7c-1-0.1-2,0.1-2.8,0.8
						C50.8,5.8,50.5,5.8,50.2,5.7z"/>
				</g>
				<g class="st2">
					<path d="M41,7.2c1.3-0.1,2.6-0.3,3.9-0.4c0.3-0.9,0.5-1.7,0.8-2.5c-1.5,0-2.9,0-4.4-0.1c0.1-0.3,0.3-0.6,0.4-0.9
						c1.8,0.1,3.5,0.2,5.3,0.2c-0.7,2.1-1.5,4.4-2.2,7c-1.7,0.4-3.4,0.8-5.1,1.2c0.1-0.3,0.1-0.7,0.2-1c1.4-0.3,2.7-0.6,4.1-0.9
						c0.2-0.8,0.5-1.6,0.7-2.4c-1.3,0.2-2.6,0.4-3.9,0.5C40.9,7.7,40.9,7.5,41,7.2z"/>
				</g>
				<g class="st2">
					<path d="M36,7.9c0-1.5-0.1-2.9-0.1-4.4c0.3-0.1,0.7-0.2,1-0.2c0.1,3.2,0.1,6.4,0.2,9.5c-0.9,0.5-1.8,1-2.7,1.5
						c-1.5,0.9-2.5,0.5-2.8-1c-0.3-1.5,0.3-2.7,1.3-3.5c-0.5,0-1.3-0.3-1.3-2.1c0-1.3,0-2.2-0.1-2.6c0.3-0.1,0.7-0.2,1-0.3
						c0.1,0.4,0.2,1.3,0.2,2.6c0,1.5,0.5,2.1,1.7,1.5C34.9,8.4,35.5,8.1,36,7.9z M36,8.9c-0.5,0.2-1.1,0.5-1.6,0.8
						c-1.3,0.6-2,1.6-1.8,2.9c0.2,0.9,0.8,1.1,1.7,0.7c0.6-0.3,1.1-0.6,1.7-0.9C36,11.2,36,10.1,36,8.9z"/>
				</g>
				<g class="st2">
					<path d="M23.4,16.2c1.1-1,2.3-2.1,3.4-3.1c-0.3-1.3-0.7-2.7-1-4.1c-1.3,1.2-2.6,2.3-3.9,3.5c-0.1-0.4-0.1-0.9-0.2-1.3
						c1.6-1.4,3.1-2.9,4.7-4.3c0.9,3.9,1.7,7.4,2.6,10.7c-1.5,1.5-3,3-4.5,4.5c-0.1-0.4-0.2-0.8-0.3-1.2c1.2-1.2,2.4-2.4,3.6-3.6
						c-0.3-1-0.5-2.1-0.8-3.2c-1.1,1.1-2.3,2.1-3.4,3.2C23.5,16.9,23.5,16.6,23.4,16.2z"/>
				</g>
				<g class="st2">
					<path d="M16.4,24.2c0.9-1.2,1.8-2.4,2.7-3.7c-0.6-1.2-1.1-2.5-1.7-3.7c-1,1.5-2.1,2.9-3.1,4.1c-0.1-0.4-0.3-0.9-0.4-1.3
						c1.3-1.5,2.5-3.2,3.8-5c1.6,3.5,3.1,6.8,4.7,9.8c-1.2,1.8-2.4,3.6-3.6,5.1c-0.2-0.3-0.3-0.7-0.5-1c1-1.2,1.9-2.6,2.9-3.9
						c-0.5-0.9-1-1.9-1.5-2.9c-0.9,1.3-1.8,2.6-2.7,3.7C16.8,24.9,16.6,24.5,16.4,24.2z"/>
				</g>
				<g class="st2">
					<path d="M9.4,24.8c2.6,2.7,5.3,4.8,7.9,6.3c-0.2,0.4-0.3,0.7-0.5,1.1c-1.4-0.8-2.7-1.8-4.1-3c-1-0.9-2.4-2.3-2.8-2.8
						c0,0,0,0,0,0c0.5,1,1.2,2.8,2,4.7c0.8,2,1.7,4,2.5,5.9c-0.2,0.3-0.3,0.7-0.5,1c-1.7-3.8-3.3-7.9-5-12.2
						C9.1,25.5,9.2,25.2,9.4,24.8z"/>
				</g>
				<g class="st2">
					<path d="M7.7,39.8c0.4-1,0.7-2,1.1-3.1c-0.9-1.3-1.9-2.6-2.8-4.1c-0.4,1.1-0.8,2.1-1.2,3.1C4.5,35.1,4.3,34.6,4,34
						c0.5-1,1-2.2,1.5-3.4c2.5,4.2,5.1,7.6,7.6,10.2c-0.5,1.6-0.9,3.1-1.4,4.6c-0.3-0.3-0.5-0.6-0.8-0.9c0.4-1.1,0.7-2.3,1.1-3.5
						c-0.8-0.9-1.6-1.9-2.4-3c-0.4,1.1-0.7,2.2-1.1,3.2C8.2,40.7,8,40.3,7.7,39.8z"/>
				</g>
			</g>
		</g>
	</g>
</g>
</svg>
