<svg xmlns="http://www.w3.org/2000/svg" viewBox="0 0 80.8 80.7" height="80.7" width="80.8"><g class="nc-icon-wrapper js-transition-icon" data-effect="rotate" data-event="mouseenter"><g class="js-transition-icon__state"><path id="Layer_2_1_" d="M5.6,39.1C4.5,39.3,4,40,4.1,41.2c0.1,1.1,0.6,1.8,1.6,1.7c0.8,0,1.2-0.4,1.6-1.8c0.5-1.6,1-2.2,2-2.2
	c1.2-0.1,2.4,0.7,2.5,2.6c0.1,1.9-0.9,2.7-2.1,2.8l-0.1-1c0.8-0.1,1.4-0.6,1.3-1.8c-0.1-1-0.7-1.5-1.4-1.5c-0.6,0-0.9,0.3-1.3,1.6
	C7.7,43.3,7,43.9,5.9,44c-1.3,0.1-2.6-0.7-2.7-2.9c-0.1-1.9,0.9-2.9,2.4-3.1L5.6,39.1z M12.4,47.4l0.9,2.5c0.6,1.6,0,2.7-1.2,3.1
	c-1.7,0.6-3-0.3-3.6-2.1L7.8,49l-3.5,0.5l-0.4-1L12.4,47.4z M8.7,48.9l0.6,1.7c0.4,1.2,1.2,1.8,2.4,1.4c0.9-0.3,1.1-1.1,0.7-2.1
	l-0.5-1.5L8.7,48.9z M14.3,60.7L12,57.6L9.1,59l2.7,3.6l-0.9,0.3l-3.2-4.3l7.7-3.6l3.1,4.1l-0.8,0.4l-2.5-3.3l-2.4,1.1l2.3,3.1
	L14.3,60.7z M13.7,66.6l6.5-5.6l1.1,0.8c-0.6,2-1.9,6.5-2.3,7.3l0,0c0.7-0.7,1.9-1.7,3-2.6l2.6-2.2l0.8,0.6l-6.5,5.6l-1-0.8
	c0.6-1.8,2-6.6,2.4-7.5l0,0c-0.8,0.8-1.9,1.7-3,2.7l-2.6,2.3L13.7,66.6z M30.8,73.6c-1.1,1.3-2.4,1.9-4.3,1.3
	c-2-0.7-2.4-2.4-1.8-4.2c0.8-2.3,3-4.5,5.7-3.6c1.7,0.6,2.4,1.9,1.9,3.5l-1-0.3c0.2-1-0.1-1.9-1.3-2.3c-1.9-0.6-3.6,1.1-4.3,3.1
	c-0.4,1.3-0.3,2.6,1.1,3c1,0.4,2,0.1,2.8-0.8L30.8,73.6z M40,73.4l-3.9-0.1l-0.7,3l4.4,0.1l-0.4,0.9l-5.3-0.2l2-8.3l5.1,0.2L41,70
	l-4.1-0.1l-0.7,2.6l3.9,0.1L40,73.4z M45.1,73.5l0.1,3.8l-1,0.2L44,69l2.7-0.6c1.5-0.4,2.5,0.2,2.8,1.4c0.3,1.2-0.3,2.1-1.3,2.6
	c0.5,0.1,1.3,0.4,1.3,1.8c0,1,0,1.7,0.1,2l-1,0.2c-0.1-0.3-0.2-1-0.2-2c0-1.2-0.5-1.7-1.7-1.4L45.1,73.5z M45.1,72.6l1.6-0.4
	c1.3-0.3,2-1,1.8-2.1c-0.2-0.8-0.8-1.1-1.7-0.9L45,69.7L45.1,72.6z M57.7,68.6l-3.4,1.9l1,3l3.9-2.2l0.2,0.9l-4.7,2.7L52,66.7
	l4.5-2.6l0.3,0.9l-3.6,2.1l0.8,2.6l3.4-2L57.7,68.6z M64.6,62.9l-2.7,2.8l1.7,2.6l3.1-3.2l0.4,0.9l-3.8,3.8l-4.7-7.1l3.6-3.7
	l0.5,0.8l-2.9,2.9l1.5,2.2l2.7-2.8L64.6,62.9z M71.5,60.6l-7.9-3l0.5-0.9l4.1,1.6c1.1,0.4,2.4,1,2.8,1.2l0,0c-0.5-0.6-1.2-1.8-2-3
	l-2.5-4.1l0.5-1l5,8.3L71.5,60.6z M72.9,46.3l-0.8,3.8l2.9,1.2l0.9-4.4l0.8,0.5l-1.1,5.2l-7.8-3.4l1-5l0.8,0.4l-0.8,4l2.4,1.1
	l0.8-3.8L72.9,46.3z M75.2,41.9c1.1-0.2,1.6-0.9,1.6-2.1c-0.1-1.1-0.6-1.8-1.6-1.7c-0.8,0-1.2,0.4-1.6,1.8c-0.5,1.6-1,2.2-2,2.2
	c-1.2,0.1-2.4-0.7-2.5-2.6c-0.1-1.9,0.9-2.7,2.1-2.8l0.1,1c-0.8,0.1-1.4,0.6-1.3,1.8c0.1,1,0.7,1.5,1.4,1.5c0.6,0,0.9-0.3,1.3-1.6
	c0.5-1.8,1.2-2.4,2.3-2.5c1.3-0.1,2.6,0.7,2.7,2.9c0.1,1.9-0.9,2.9-2.4,3.1L75.2,41.9z M68.5,33.6l-0.9-2.5c-0.6-1.6,0-2.7,1.2-3.1
	c1.7-0.6,3,0.3,3.6,2.1l0.7,1.9l3.5-0.5l0.4,1L68.5,33.6z M72.2,32.1l-0.6-1.7c-0.4-1.2-1.2-1.8-2.4-1.4c-0.9,0.3-1.1,1.1-0.7,2.1
	l0.5,1.5L72.2,32.1z M66.6,20.2l2.3,3.2l2.9-1.3l-2.6-3.6l0.9-0.3l3.1,4.3l-7.8,3.4l-3-4.2l0.8-0.4l2.4,3.3l2.4-1.1l-2.3-3.2
	L66.6,20.2z M67.3,14.3l-6.5,5.6l-1.1-0.8c0.6-2,1.9-6.5,2.3-7.3l0,0c-0.7,0.7-1.9,1.7-3,2.6l-2.6,2.2L55.6,16l6.5-5.6l1,0.8
	c-0.6,1.8-2,6.6-2.3,7.5l0,0c0.8-0.8,1.9-1.7,3-2.7l2.6-2.3L67.3,14.3z M50.2,7.1c1.1-1.3,2.5-1.8,4.3-1.2c2,0.7,2.3,2.4,1.7,4.2
	c-0.8,2.3-3.1,4.4-5.8,3.4c-1.7-0.6-2.3-1.9-1.9-3.5l1,0.4c-0.3,1,0,1.9,1.2,2.3c1.9,0.7,3.6-1,4.3-3c0.5-1.3,0.3-2.5-1.1-3.1
	c-1-0.4-2-0.1-2.8,0.8L50.2,7.1z M41,7.3l3.9,0.2l0.8-3l-4.4-0.3l0.4-0.9L47,3.6l-2.2,8.2l-5.1-0.3l0.2-0.9l4.1,0.2l0.7-2.6L40.8,8
	L41,7.3z M36,7.2l-0.1-3.8l1-0.2l0.2,8.5l-2.7,0.6c-1.5,0.4-2.5-0.2-2.8-1.4s0.3-2.1,1.3-2.6c-0.5-0.1-1.3-0.4-1.3-1.8
	c0-1,0-1.7-0.1-2l1-0.2c0.1,0.3,0.2,1,0.2,2c0,1.2,0.5,1.7,1.7,1.4L36,7.2z M36,8.1l-1.6,0.4c-1.3,0.3-2,1-1.8,2.1
	c0.2,0.8,0.8,1.1,1.7,0.9l1.7-0.4L36,8.1z M23.4,12l3.4-1.9l-1-3l-3.9,2.2l-0.2-0.9l4.7-2.7l2.6,8.1l-4.5,2.6l-0.3-0.9l3.6-2.1
	L27,10.9l-3.4,1.9L23.4,12z M16.4,17.6l2.7-2.8l-1.7-2.6l-3.1,3.2l-0.4-0.9l3.8-3.8l4.7,7.1l-3.6,3.7l-0.5-0.8l2.9-2.9l-1.5-2.2
	L17,18.4L16.4,17.6z M9.4,19.9l7.9,3l-0.5,0.9l-4.1-1.6c-1-0.4-2.4-1-2.8-1.2l0,0c0.5,0.6,1.2,1.8,2,3l2.5,4.1l-0.5,1l-5-8.2
	L9.4,19.9z M7.7,34.4l1.1-3.8L6,29.2l-1.2,4.3L4,32.9l1.5-5.1l7.6,4l-1.4,4.9l-0.8-0.4l1.1-3.9l-2.4-1.3l-1.1,3.8L7.7,34.4z"></path></g><g class="js-transition-icon__state" aria-hidden="true" style="display: none;"><style type="text/css">
	.st0{display:none;}
	.st1{display:inline;}
	.st2{enable-background:new    ;}
</style><g id="Layer_1">
	<path id="Layer_3" d="M4.3,37.7c2.2,2.8,2,3-2.5,3.5c4.6,0.3,4.8,0.5,2.7,2.8c2.7-2.3,2.8-2.5,2.7-3c0.4-0.5,0.6-0.7,3.3-3.7
		c-2,3-1.6,3.2,4.2,4.3c-5.7,0.2-6.1,0.4-3.5,4.7c-2.9-4.2-3-4.6-0.2-1.7c-2.5-2.9-2.4-3.1,2.2-3c-4.6-0.8-4.8-1-2.3-2.5
		c-2.9,1.5-3,1.6-2.2,2.7c-1.1,0-1.3,0.2-3.8,4c1.7-3.8,1.3-4-4.5-4.8c5.7-0.6,6.1-0.9,4-5.2C6.9,40.1,6.9,40.5,4.3,37.7z
		 M14.9,45.5c-4.9,3.9-4.6,4.7,1.5,4.2c-5.9,1.1-6.1,1.4-2,5.2c-5.1-3.4-5.5-3.7-6-3.5c0.3-0.8,0.1-1.4-1.2-3.2
		C8.4,49.9,7.3,50,1.3,49c5.9,1.1,5.8,0.7-0.7-1.7C7.1,49.7,9.9,49.3,14.9,45.5z M7.4,48c2.6,1.8,2.8,2.4,1,2.8
		c1.9-0.1,2.2,0.1,4,2.3c-1.1-2.4-1-2.7,1.2-3.5c-2.3,0.5-2.5,0-0.8-2.5C11.1,49.6,10,49.8,7.4,48z M15.1,61.9
		c-1.6-2.3-2.4-3.4-3.8-5.2c1.5,1.8,0.5,2.3-4.8,2.3c5.4-0.1,6.3,1.1,4.5,6c1.7-4.9,1.4-4.8-1.5,0.5c2.9-5.3,1.9-6.7-5.3-7.2
		c7.2,0.5,9.8-0.7,12.9-6c-3.1,5.3-2.1,6.6,5.2,6.8c-7.2-0.2-7.5-0.1-1.3,0.7c-6.2-0.7-7-1.8-4.2-5.5c-2.8,3.7-3.6,4-4,1.8
		c0.4,2.2,1.2,3.2,3.8,5.2C13.8,59.4,13.5,59.5,15.1,61.9z M9.8,67.2c7.8-1.1,10-3,10.9-9.4c-0.9,6.4-0.5,6.6,1.8,1.3
		c-2.5,6-3,7.4-3.8,12.2c0.7-4.5,0.7-4.5,0,0c1-4.7,1.4-5,5-4.3c-3.3-1-2.4-1.7,4.3-3.7c-6.8,1.9-6.5,2.1,1.3,1
		c-7.8,1.1-10,3-10.9,9.4c0.9-6.4,0.5-6.6-1.7-1.3c2.4-5.9,2.9-7.5,4-12.5c-1,4.8-1,4.8,0,0c-1.3,5-1.6,5.3-5,4.5
		c3,1.1,2.2,1.9-4.3,3.8C17.9,66.2,17.6,66,9.8,67.2z M32.4,75.3c-3.5-3-3.9-2.8-7.2,2.2c2-5.4,1.8-6-3-7c5.3-0.3,6-1.1,9.5-6
		c-2.1,5.4-1.8,5.9,3.2,5.8c-5.2,0.6-5.5,0.5-1.7-0.5c-3.8,0.6-3.9,0.3-2.2-3.8c-2.7,3.8-3.3,4.4-7.2,5.2c3.6,0.3,3.6,0.7,1.8,5
		c2.5-4,2.9-4.1,4.7-1.3C28.8,71.8,29.2,71.9,32.4,75.3z M41.6,73.6c-3.1-0.5-4.4-0.5-6.5-0.2c2.1-0.3,1.8,0.7-1.2,5
		c3-4.4,4.5-4.3,7.3,0.2c-2.9-4.5-3-4.2-0.7,1.5c-2.3-5.7-4.1-5.8-8.9-0.3c4.8-5.4,5.4-8.2,3.3-13.9c2.1,5.7,3.8,5.8,8.5,0.3
		c-4.8,5.4-4.8,5.8-0.3,1.7c-4.5,4.1-5.8,4.1-6.8-0.2c1,4.2,0.8,5.1-1.2,4.3c1.9,0.7,3.2,0.8,6.5,0.2C38.5,72.9,38.4,73.2,41.6,73.6
		z M44,73.9c2.3-0.8,2.3,0.4,0.2,6.3c2.1-5.9,1.8-5.8-1.7,0.3c3.5-6.2,3.4-9-0.3-14.2c3.8,5.2,4.6,5,4.5-1c0.6,5.9,1,6.1,4.7,2.3
		c-3.5,4.5-3.7,4.8-2.2,4.3c-1.7,0.7-1.4,0.8,2.2,3c-3.6-1.4-3.6-1.2,0.2,3.3c-3.8-4.4-4.1-4.4-1.7,0.3c-2.4-4.8-2.5-5-0.3-3.3
		c-2.1-2.4-2.3-2.6-2.8-2.3C46.8,72.9,46.2,73.1,44,73.9z M44,73.8c2.2-2.3,2.8-2.5,2.7-0.7c0.5-1.9,0.7-2.1,3-3.5
		c-2.4,0.8-2.6,0.7-2.8-1.5c0,2.2-0.6,2.4-3,0.8C46.2,70.5,46.2,71.4,44,73.8z M59,68c-2.7,1.2-3.8,1.8-5.7,3.2
		c1.9-1.3,2.2-0.3,1.7,5c0.5-5.4,1.8-6.1,6.5-3.7c-4.7-2.4-4.6-2.1,0.3,1.5c-5-3.6-6.5-2.7-7.8,4.5c1.3-7.2,0.4-9.9-4.5-13.7
		c5,3.8,6.4,2.9,7.5-4.3c-1.1,7.2-1,7.5,0.5,1.5c-1.5,6-2.7,6.7-6,3.5c3.3,3.2,3.6,4.1,1.3,4.3c2.3-0.3,3.4-0.9,5.7-3.3
		C56.3,68.9,56.4,69.2,59,68z M65.8,61.9c-2.3,2-3.2,2.9-4.5,4.7c1.3-1.7,1.8-0.9,2.8,4.3c-1-5.2,0-6.3,5.2-5.3
		c-5.2-0.9-5-0.6,0.7,1.5c-5.7-2.1-6.9-0.9-6.3,6.3c-0.6-7.2-2.2-9.6-7.8-11.9c5.7,2.3,6.9,1.1,6-6.2c0.9,7.2,1,7.5,0.8,1.3
		c0.2,6.2-0.8,7.1-4.8,4.8c4.1,2.3,4.6,3,2.5,3.7c2.1-0.7,3-1.6,4.5-4.7C63.2,63.6,63.4,63.9,65.8,61.9z M74,63.7
		c-5-6.2-7.6-7.2-13.2-5c5.6-2.1,5.8-2.4,0.8-1.5c5-0.9,6.3-0.4,6.8,2.7c-0.2-2.9,0.3-2.8,4.7,2c-4.3-4.7-4.3-4.7,0,0
		c-4.5-4.9-4.7-5.3-3.3-5c-1.6-0.7-2.4-2-4.2-6.8c1.7,4.8,1.9,4.5,0.8-1.7c1.1,6.2,2.7,8.9,8.4,13.9C69.2,57.2,69,57.5,74,63.7z
		 M73.3,44.9c-0.9,2.8-1.1,4.1-1.3,6.3c0.2-2.3,1.2-1.9,4.8,2c-3.7-3.9-3.4-5.3,1.5-7.3c-4.9,2-4.6,2.2,1.3,0.8
		c-6,1.3-6.3,3.1-1.8,8.7c-4.5-5.6-7.1-6.8-13-5.7c6-1.1,6.3-2.7,1.7-8.3c4.6,5.6,4.9,5.8,1.3,0.7c3.6,5.1,3.3,6.4-1.3,6.7
		c4.6-0.3,5.4,0.1,4,1.8c1.4-1.7,1.7-3,1.3-6.3C72.2,47.6,72.5,47.7,73.3,44.9z M76.4,43.3c-2-2.9-1.9-3.1,2.7-3.5
		c-4.6-0.4-4.8-0.6-2.7-2.8c-2.7,2.3-2.8,2.4-2.7,3c-0.4,0.4-0.6,0.6-3.3,3.7c2-3,1.6-3.3-4.2-4.3c5.7-0.2,6.1-0.5,3.5-4.7
		c2.9,4.2,3,4.5,0.2,1.7c2.5,2.8,2.4,3-2.2,3c4.6,0.7,4.8,0.9,2.3,2.5c2.9-1.6,3-1.7,2.2-2.7c1.1-0.1,1.3-0.3,3.8-4.2
		c-1.7,3.9-1.3,4.1,4.5,4.8c-5.7,0.6-6.1,1-4,5.2C74,40.8,74,40.5,76.4,43.3z M66,35.5c4.9-3.9,4.6-4.7-1.5-4.2
		c5.9-1.1,6.1-1.4,2-5.2c5.1,3.4,5.5,3.7,6,3.5c-0.3,0.8-0.1,1.4,1.2,3.2c-1.2-1.7-0.1-1.9,5.8-0.8c-5.9-1.1-5.8-0.7,0.7,1.7
		C73.8,31.3,71,31.7,66,35.5z M73.5,33c-2.6-1.8-2.8-2.4-1-2.8c-1.9,0.1-2.2-0.1-4-2.3c1.1,2.4,1,2.7-1.2,3.5c2.3-0.5,2.5,0,0.8,2.5
		C69.8,31.4,70.9,31.2,73.5,33z M65.8,19c1.6,2.5,2.4,3.5,3.8,5.3c-1.5-1.8-0.5-2.2,4.8-2.2c-5.4-0.1-6.2-1.3-4.3-6
		c-1.9,4.8-1.6,4.7,1.5-0.5c-3.1,5.2-2.1,6.6,5.2,7.2c-7.2-0.6-9.8,0.5-13,5.7c3.2-5.2,2.2-6.5-5-7c7.2,0.5,7.5,0.3,1.3-0.7
		c6.2,1,7,2.1,4,5.5c2.9-3.4,3.7-3.8,4-1.8c-0.3-1.9-1-3-3.8-5.3C67.1,21.5,67.4,21.4,65.8,19z M71.2,13.7c-7.8,1.1-10,3-10.9,9.4
		c0.9-6.4,0.5-6.6-1.8-1.3c2.5-6,3-7.4,3.8-12.2c-0.7,4.5-0.7,4.5,0,0c-1,4.7-1.4,5-5,4.3c3.3,1,2.4,1.7-4.3,3.7
		c6.8-1.9,6.5-2.1-1.3-1c7.8-1.1,10-3,10.9-9.4c-0.9,6.4-0.5,6.6,1.7,1.3c-2.4,5.9-2.9,7.5-3.8,12.5c0.9-4.8,0.9-4.8,0,0
		c1.1-5,1.5-5.3,5-4.5c-3.1-1.1-2.3-1.9,4.3-3.8C63.1,14.7,63.4,14.9,71.2,13.7z M48.7,5.4c3.3,3.1,3.8,2.9,7.2-2
		c-2.1,5.3-2,5.9,2.8,7c-5.3,0.2-6.1,0.9-9.7,5.7c2.2-5.3,2-5.7-3.2-5.8c5.3-0.4,5.6-0.3,1.7,0.7c3.8-0.6,3.9-0.3,2,3.8
		c2.9-3.8,3.5-4.3,7.2-5c-3.3-0.4-3.3-0.8-1.8-5.2c-2.3,4-2.6,4.1-4.7,1.3C52,8.9,51.7,8.8,48.7,5.4z M39.4,7.1
		c3.1,0.3,4.4,0.4,6.5,0.3c-2.1,0.1-1.8-0.9,1.3-5c-3.1,4.1-4.6,4-7.3-0.5c2.7,4.5,2.9,4.2,0.7-1.5c2.2,5.7,4,5.8,8.9,0.5
		c-4.9,5.3-5.6,8-3.7,13.7c-1.9-5.7-3.6-5.8-8.5-0.5c4.9-5.3,5-5.6,0.3-1.5c4.6-4.1,6-4,6.8,0.3c-0.9-4.4-0.6-5.2,1.2-4.3
		c-1.8-0.9-3.1-0.9-6.5-0.3C42.5,7.7,42.6,7.5,39.4,7.1z M37.1,6.8c-2.3,0.8-2.3-0.4-0.2-6.3c-2.1,5.9-1.8,5.8,1.7-0.3
		c-3.5,6.2-3.4,9,0.3,14.2c-3.8-5.2-4.6-5-4.5,1c-0.6-5.9-1-6.1-4.7-2.3c3.5-4.5,3.7-4.8,2.2-4.3c1.7-0.7,1.4-0.8-2.2-3
		c3.6,1.4,3.6,1.2-0.2-3.3c3.8,4.4,4.1,4.4,1.7-0.3c2.4,4.8,2.5,5,0.3,3.3c2.1,2.4,2.3,2.6,2.8,2.3C34.3,7.8,34.9,7.6,37.1,6.8z
		 M37.2,6.9c-2.3,2.3-2.8,2.5-2.7,0.7c-0.6,1.9-0.8,2.1-3,3.5c2.3-0.8,2.5-0.7,2.8,1.5c0-2.2,0.5-2.4,2.8-0.7
		C34.8,10.2,34.8,9.3,37.2,6.9z M22.1,12.6c2.6-1.3,3.7-1.9,5.7-3.2c-1.9,1.3-2.3,0.3-1.7-5c-0.6,5.3-1.9,6-6.5,3.7
		c4.6,2.3,4.6,2-0.3-1.5c4.9,3.6,6.4,2.7,7.8-4.5c-1.4,7.2-0.5,9.8,4.3,13.5c-4.9-3.7-6.4-2.8-7.5,4.3c1.1-7.2,1-7.5-0.5-1.5
		c1.5-6,2.7-6.7,6-3.5c-3.3-3.1-3.5-4-1.3-4.2c-2.2,0.2-3.3,0.8-5.7,3.2C24.8,11.6,24.7,11.4,22.1,12.6z M15.2,18.6
		c2.3-2,3.2-2.9,4.5-4.7c-1.3,1.7-1.8,0.9-2.8-4.3c1,5.2,0,6.3-5.2,5.3c5.2,0.9,5,0.6-0.7-1.5c5.7,2.1,6.9,0.9,6.3-6.3
		c0.6,7.2,2.2,9.6,7.8,11.9c-5.7-2.3-6.9-1.1-6,6.2c-0.9-7.2-1-7.5-0.8-1.3c-0.2-6.2,0.8-7.1,4.8-4.8c-4.1-2.3-4.6-3-2.5-3.7
		c-2.1,0.7-3,1.6-4.5,4.7C17.8,16.9,17.6,16.6,15.2,18.6z M6.9,16.8c5,6.2,7.6,7.2,13.2,5c-5.6,2.1-5.8,2.4-0.8,1.5
		c-5,0.9-6.3,0.4-6.8-2.7c0.2,3-0.3,2.8-4.7-2c4.3,4.7,4.3,4.7,0,0c4.5,4.9,4.7,5.3,3.3,5c1.6,0.7,2.4,2,4.2,6.8
		c-1.7-4.8-1.9-4.5-0.8,1.7c-1.1-6.2-2.7-8.9-8.4-13.7C11.7,23.3,11.9,23,6.9,16.8z M7.1,35.8C8.3,33,8.6,31.7,9,29.5
		c-0.3,2.2-1.3,1.7-4.7-2.3c3.4,4.1,3,5.5-2,7.2c5-1.7,4.8-1.9-1.3-1c6.1-0.9,6.6-2.6,2.5-8.5c4.1,6,6.6,7.3,12.7,6.7
		c-6.1,0.6-6.6,2.2-2.3,8.2c-4.2-6-4.5-6.1-1.3-0.7c-3.1-5.4-2.8-6.7,1.8-6.5c-4.6-0.2-5.4-0.6-4-2.2c-1.4,1.5-1.8,2.8-1.8,6.3
		C8.5,33.1,8.3,33,7.1,35.8z"></path>
</g><g id="Layer_2" class="st0">
	<g id="Layer_2_2_" class="st1">
		<g>
			<g id="Layer_3_7_">
				<g class="st2">
					<path d="M5.6,42.4c-1.1-1.1-1.6-1.2-1.5,0.2c0.1,1.2,0.6,2.6,1.6,3.8c0.8,0.9,1.2,1,1.6,0c0.5-1.1,1-1.2,2-0.4
						c1.2,0.9,2.4,2.4,2.5,4.3c0.1,1.9-0.9,2.1-2.1,1.3c0-0.3-0.1-0.7-0.1-1c0.8,0.5,1.4,0.4,1.3-0.8c-0.1-1.1-0.7-2-1.4-2.5
						c-0.6-0.5-0.9-0.5-1.3,0.5c-0.5,1.2-1.2,1.1-2.3-0.1c-1.3-1.4-2.6-4.1-2.7-6.5c-0.1-2.1,0.9-1.5,2.4,0.1
						C5.6,41.6,5.6,42,5.6,42.4z"></path>
				</g>
				<g class="st2">
					<path d="M12.4,56.2c0.3,0.9,0.6,1.8,0.9,2.6c0.6,1.6,0,2.3-1.2,2.1c-1.7-0.3-3-2-3.6-4.2c-0.2-0.8-0.5-1.6-0.7-2.4
						c-1.2-0.9-2.3-2-3.5-3.4c-0.1-0.5-0.3-1-0.4-1.5C6.7,52.9,9.6,55.1,12.4,56.2z M8.7,55.1c0.2,0.7,0.4,1.4,0.6,2
						c0.4,1.4,1.2,2.5,2.4,2.8c0.9,0.2,1.1-0.4,0.7-1.5c-0.2-0.5-0.3-1-0.5-1.6C10.8,56.4,9.8,55.8,8.7,55.1z"></path>
				</g>
				<g class="st2">
					<path d="M14.3,67.6c-0.8-0.9-1.5-1.9-2.3-3.1c-1-0.1-1.9-0.2-2.9-0.4c0.9,1.5,1.8,2.9,2.7,4.1c-0.3,0-0.6-0.1-0.9-0.1
						c-1.1-1.5-2.1-3.2-3.2-5.3c2.6,0.9,5.1,1.2,7.7,0.8c1,1.3,2.1,2.4,3.1,3.4c-0.3,0.1-0.5,0.2-0.8,0.2c-0.8-0.8-1.7-1.7-2.5-2.8
						c-0.8,0.1-1.6,0.1-2.4,0.1c0.8,1.1,1.5,2.1,2.3,3C14.8,67.6,14.6,67.6,14.3,67.6z"></path>
				</g>
				<g class="st2">
					<path d="M13.7,71.5c2.2-0.7,4.3-1.7,6.5-3.1c0.4,0.2,0.7,0.3,1.1,0.5c-0.6,1.5-1.9,4.2-2.3,4.6l0,0c0.7-0.4,1.9-1,3-1.6
						c0.9-0.5,1.7-1.1,2.6-1.8c0.3,0.1,0.5,0.2,0.8,0.2c-2.2,1.7-4.3,3-6.5,4c-0.3-0.1-0.7-0.3-1-0.4c0.6-0.9,2-3.9,2.4-4.5l0,0
						c-0.8,0.6-1.9,1.2-3,1.7c-0.9,0.4-1.7,0.8-2.6,1.1C14.4,71.8,14,71.6,13.7,71.5z"></path>
				</g>
				<g class="st2">
					<path d="M30.8,74.9c-1.1,1-2.4,1.4-4.3,1.2c-2-0.3-2.4-1.1-1.8-2.2c0.8-1.4,3-3.3,5.7-3.5c1.7-0.1,2.4,0.8,1.9,2.1
						c-0.3,0-0.7,0-1,0c0.2-0.8-0.1-1.4-1.3-1.3c-1.9,0.1-3.6,1.6-4.3,2.8c-0.4,0.8-0.3,1.5,1.1,1.6c1,0.1,2-0.1,2.8-0.8
						C30,74.9,30.4,74.9,30.8,74.9z"></path>
				</g>
				<g class="st2">
					<path d="M40,73.5c-1.3,0.2-2.6,0.3-3.9,0.5c-0.2,0.9-0.5,1.7-0.7,2.6c1.5,0,2.9-0.1,4.4-0.1c-0.1,0.3-0.3,0.6-0.4,0.9
						c-1.8,0-3.5-0.1-5.3-0.1c0.7-2.1,1.3-4.5,2-7.1c1.7-0.4,3.4-0.9,5.1-1.4c-0.1,0.4-0.1,0.7-0.2,1.1c-1.4,0.3-2.7,0.7-4.1,1
						c-0.2,0.8-0.5,1.6-0.7,2.4c1.3-0.2,2.6-0.4,3.9-0.6C40.1,72.9,40,73.2,40,73.5z"></path>
				</g>
				<g class="st2">
					<path d="M45.1,72.8c0,1.5,0.1,3,0.1,4.5c-0.3,0.1-0.7,0.2-1,0.2c-0.1-3.3-0.1-6.4-0.2-9.6c0.9-0.5,1.8-1,2.7-1.5
						c1.5-0.9,2.5-0.5,2.8,1c0.3,1.5-0.3,2.8-1.3,3.5c0.5,0,1.3,0.3,1.3,2.1c0,1.3,0,2.2,0.1,2.6c-0.3,0.1-0.7,0.2-1,0.3
						c-0.1-0.4-0.2-1.3-0.2-2.6c0-1.5-0.5-2.1-1.7-1.5C46.2,72.3,45.6,72.5,45.1,72.8z M45.1,71.8c0.5-0.2,1.1-0.5,1.6-0.8
						c1.3-0.6,2-1.6,1.8-3c-0.2-1-0.8-1.2-1.7-0.7c-0.6,0.4-1.2,0.7-1.8,1.1C45,69.5,45.1,70.6,45.1,71.8z"></path>
				</g>
				<g class="st2">
					<path d="M57.7,64.3c-1.1,1-2.3,2.1-3.4,3.1c0.3,1.3,0.7,2.7,1,4.1c1.3-1.2,2.6-2.4,3.9-3.5c0.1,0.4,0.1,0.9,0.2,1.3
						c-1.6,1.4-3.1,2.9-4.7,4.3c-0.9-3.9-1.8-7.5-2.7-10.9c1.5-1.5,3-3,4.5-4.5c0.1,0.4,0.2,0.8,0.3,1.2c-1.2,1.2-2.4,2.4-3.6,3.6
						c0.3,1.1,0.5,2.2,0.8,3.3c1.1-1.1,2.3-2.2,3.4-3.3C57.5,63.5,57.6,63.9,57.7,64.3z"></path>
				</g>
				<g class="st2">
					<path d="M64.6,56.3c-0.9,1.1-1.8,2.4-2.7,3.7c0.6,1.2,1.1,2.4,1.7,3.7c1-1.5,2.1-2.9,3.1-4.1c0.1,0.4,0.3,0.9,0.4,1.3
						c-1.3,1.5-2.5,3.1-3.8,4.9c-1.6-3.5-3.1-6.8-4.7-9.7c1.2-1.8,2.4-3.5,3.6-5.1c0.2,0.3,0.3,0.7,0.5,1c-1,1.2-1.9,2.5-2.9,3.9
						c0.5,0.9,1,1.9,1.5,2.9c0.9-1.3,1.8-2.6,2.7-3.7C64.2,55.5,64.4,55.9,64.6,56.3z"></path>
				</g>
				<g class="st2">
					<path d="M71.5,55.6c-2.6-2.7-5.3-4.8-7.9-6.4c0.2-0.4,0.3-0.7,0.5-1.1c1.4,0.8,2.7,1.8,4.1,3c1.1,0.9,2.4,2.3,2.8,2.8l0,0
						c-0.5-1-1.2-2.8-2-4.7c-0.8-2-1.7-4-2.5-5.9c0.2-0.3,0.3-0.7,0.5-1c1.7,3.8,3.3,8,5,12.3C71.8,55.1,71.7,55.3,71.5,55.6z"></path>
				</g>
				<g class="st2">
					<path d="M72.9,40.6c-0.3,1.1-0.5,2.2-0.8,3.4c1,1.2,1.9,2.6,2.9,4c0.3-1.2,0.6-2.4,0.9-3.5c0.3,0.5,0.5,1,0.8,1.5
						c-0.4,1.3-0.7,2.6-1.1,4c-2.6-4.1-5.2-7.3-7.8-9.7c0.3-1.7,0.7-3.4,1-4.9c0.3,0.3,0.5,0.6,0.8,0.9c-0.3,1.2-0.5,2.5-0.8,3.9
						c0.8,0.8,1.6,1.7,2.4,2.7c0.3-1.2,0.5-2.3,0.8-3.5C72.3,39.8,72.6,40.2,72.9,40.6z"></path>
				</g>
				<g class="st2">
					<path d="M75.2,38.5c1.1,1.1,1.6,1.2,1.6,0c-0.1-1.2-0.6-2.7-1.6-3.8c-0.8-0.9-1.2-1-1.6,0c-0.5,1.1-1,1.2-2,0.4
						c-1.2-0.9-2.4-2.4-2.5-4.4c-0.1-1.9,0.9-2.1,2.1-1.3c0,0.3,0.1,0.7,0.1,1c-0.8-0.5-1.4-0.4-1.3,0.8c0.1,1.1,0.7,2,1.4,2.5
						c0.6,0.5,0.9,0.5,1.3-0.5c0.5-1.3,1.2-1.2,2.3,0c1.3,1.4,2.6,4.1,2.7,6.5c0.1,2.1-0.9,1.5-2.4-0.1
						C75.3,39.3,75.2,38.9,75.2,38.5z"></path>
				</g>
				<g class="st2">
					<path d="M68.5,24.8c-0.3-0.9-0.6-1.8-0.9-2.6c-0.6-1.6,0-2.3,1.2-2.1c1.7,0.3,3,2.1,3.6,4.2c0.2,0.8,0.5,1.6,0.7,2.4
						c1.2,0.9,2.3,2,3.5,3.4c0.1,0.5,0.3,1,0.4,1.5C74.2,28.1,71.3,25.9,68.5,24.8z M72.2,25.9c-0.2-0.7-0.4-1.4-0.6-2
						c-0.4-1.4-1.2-2.5-2.4-2.8c-0.9-0.2-1.1,0.4-0.7,1.5c0.2,0.5,0.3,1.1,0.5,1.6C70.1,24.6,71.1,25.2,72.2,25.9z"></path>
				</g>
				<g class="st2">
					<path d="M66.6,13.2c0.8,1,1.5,2,2.3,3.2c1,0.1,1.9,0.3,2.9,0.5c-0.9-1.5-1.7-2.9-2.6-4.1c0.3,0,0.6,0.1,0.9,0.1
						c1,1.5,2.1,3.2,3.1,5.3c-2.6-1-5.2-1.4-7.8-1.1c-1-1.3-2-2.5-3-3.5c0.3-0.1,0.5-0.2,0.8-0.2c0.8,0.8,1.6,1.7,2.4,2.8
						c0.8-0.1,1.6-0.1,2.4-0.1c-0.8-1.1-1.5-2.1-2.3-3C66,13.1,66.3,13.1,66.6,13.2z"></path>
				</g>
				<g class="st2">
					<path d="M67.3,9.4c-2.2,0.7-4.3,1.7-6.5,3.1c-0.4-0.2-0.7-0.3-1.1-0.5c0.6-1.5,1.9-4.2,2.3-4.6c0,0,0,0,0,0
						c-0.7,0.4-1.9,1-3,1.6c-0.9,0.5-1.7,1.1-2.6,1.8c-0.3-0.1-0.5-0.2-0.8-0.2c2.2-1.7,4.3-3,6.5-4c0.3,0.1,0.7,0.3,1,0.5
						c-0.6,0.9-2,3.9-2.3,4.6l0,0c0.8-0.6,1.9-1.2,3-1.7c0.9-0.4,1.7-0.8,2.6-1.1C66.7,9,67,9.2,67.3,9.4z"></path>
				</g>
				<g class="st2">
					<path d="M50.2,5.7c1.1-1,2.5-1.3,4.3-1.1c2,0.3,2.3,1.1,1.7,2.2c-0.8,1.4-3.1,3.3-5.8,3.4c-1.7,0.1-2.3-0.8-1.9-2.1
						c0.3,0,0.7,0.1,1,0.1c-0.3,0.8,0,1.4,1.2,1.4c1.9,0,3.6-1.5,4.3-2.8c0.5-0.8,0.3-1.4-1.1-1.7c-1-0.1-2,0.1-2.8,0.8
						C50.8,5.8,50.5,5.8,50.2,5.7z"></path>
				</g>
				<g class="st2">
					<path d="M41,7.2c1.3-0.1,2.6-0.3,3.9-0.4c0.3-0.9,0.5-1.7,0.8-2.5c-1.5,0-2.9,0-4.4-0.1c0.1-0.3,0.3-0.6,0.4-0.9
						c1.8,0.1,3.5,0.2,5.3,0.2c-0.7,2.1-1.5,4.4-2.2,7c-1.7,0.4-3.4,0.8-5.1,1.2c0.1-0.3,0.1-0.7,0.2-1c1.4-0.3,2.7-0.6,4.1-0.9
						c0.2-0.8,0.5-1.6,0.7-2.4c-1.3,0.2-2.6,0.4-3.9,0.5C40.9,7.7,40.9,7.5,41,7.2z"></path>
				</g>
				<g class="st2">
					<path d="M36,7.9c0-1.5-0.1-2.9-0.1-4.4c0.3-0.1,0.7-0.2,1-0.2c0.1,3.2,0.1,6.4,0.2,9.5c-0.9,0.5-1.8,1-2.7,1.5
						c-1.5,0.9-2.5,0.5-2.8-1c-0.3-1.5,0.3-2.7,1.3-3.5c-0.5,0-1.3-0.3-1.3-2.1c0-1.3,0-2.2-0.1-2.6c0.3-0.1,0.7-0.2,1-0.3
						c0.1,0.4,0.2,1.3,0.2,2.6c0,1.5,0.5,2.1,1.7,1.5C34.9,8.4,35.5,8.1,36,7.9z M36,8.9c-0.5,0.2-1.1,0.5-1.6,0.8
						c-1.3,0.6-2,1.6-1.8,2.9c0.2,0.9,0.8,1.1,1.7,0.7c0.6-0.3,1.1-0.6,1.7-0.9C36,11.2,36,10.1,36,8.9z"></path>
				</g>
				<g class="st2">
					<path d="M23.4,16.2c1.1-1,2.3-2.1,3.4-3.1c-0.3-1.3-0.7-2.7-1-4.1c-1.3,1.2-2.6,2.3-3.9,3.5c-0.1-0.4-0.1-0.9-0.2-1.3
						c1.6-1.4,3.1-2.9,4.7-4.3c0.9,3.9,1.7,7.4,2.6,10.7c-1.5,1.5-3,3-4.5,4.5c-0.1-0.4-0.2-0.8-0.3-1.2c1.2-1.2,2.4-2.4,3.6-3.6
						c-0.3-1-0.5-2.1-0.8-3.2c-1.1,1.1-2.3,2.1-3.4,3.2C23.5,16.9,23.5,16.6,23.4,16.2z"></path>
				</g>
				<g class="st2">
					<path d="M16.4,24.2c0.9-1.2,1.8-2.4,2.7-3.7c-0.6-1.2-1.1-2.5-1.7-3.7c-1,1.5-2.1,2.9-3.1,4.1c-0.1-0.4-0.3-0.9-0.4-1.3
						c1.3-1.5,2.5-3.2,3.8-5c1.6,3.5,3.1,6.8,4.7,9.8c-1.2,1.8-2.4,3.6-3.6,5.1c-0.2-0.3-0.3-0.7-0.5-1c1-1.2,1.9-2.6,2.9-3.9
						c-0.5-0.9-1-1.9-1.5-2.9c-0.9,1.3-1.8,2.6-2.7,3.7C16.8,24.9,16.6,24.5,16.4,24.2z"></path>
				</g>
				<g class="st2">
					<path d="M9.4,24.8c2.6,2.7,5.3,4.8,7.9,6.3c-0.2,0.4-0.3,0.7-0.5,1.1c-1.4-0.8-2.7-1.8-4.1-3c-1-0.9-2.4-2.3-2.8-2.8
						c0,0,0,0,0,0c0.5,1,1.2,2.8,2,4.7c0.8,2,1.7,4,2.5,5.9c-0.2,0.3-0.3,0.7-0.5,1c-1.7-3.8-3.3-7.9-5-12.2
						C9.1,25.5,9.2,25.2,9.4,24.8z"></path>
				</g>
				<g class="st2">
					<path d="M7.7,39.8c0.4-1,0.7-2,1.1-3.1c-0.9-1.3-1.9-2.6-2.8-4.1c-0.4,1.1-0.8,2.1-1.2,3.1C4.5,35.1,4.3,34.6,4,34
						c0.5-1,1-2.2,1.5-3.4c2.5,4.2,5.1,7.6,7.6,10.2c-0.5,1.6-0.9,3.1-1.4,4.6c-0.3-0.3-0.5-0.6-0.8-0.9c0.4-1.1,0.7-2.3,1.1-3.5
						c-0.8-0.9-1.6-1.9-2.4-3c-0.4,1.1-0.7,2.2-1.1,3.2C8.2,40.7,8,40.3,7.7,39.8z"></path>
				</g>
			</g>
		</g>
	</g>
</g></g></g><script>!function(){"use strict";if(!window.requestAnimationFrame){var a=null;window.requestAnimationFrame=function(t,i){var e=(new Date).getTime();a||(a=e);var s=Math.max(0,16-(e-a)),n=window.setTimeout(function(){t(e+s)},s);return a=e+s,n}}function r(t,i,e,s){return 1>(t/=s/2)?e/2*t*t*t*t+i:-e/2*((t-=2)*t*t*t-2)+i}function e(t){return t?[1,0]:[0,1]}function t(t){this.element=t,this.svg=function t(i){var e=i.parentNode;if("svg"!==e.tagName)e=t(e);return e;}(this.element),this.getSize(),this.states=this.element.querySelectorAll(".js-transition-icon__state"),this.time={start:null,total:200},this.status={interacted:!1,animating:!1},this.animation={effect:this.element.getAttribute("data-effect"),event:this.element.getAttribute("data-event")},this.init()}t.prototype.getSize=function(){var t=this.svg.getAttribute("viewBox");this.size=t?{width:t.split(" ")[2],height:t.split(" ")[3]}:this.svg.getBoundingClientRect()},t.prototype.init=function(){var t=this;this.svg.addEventListener(t.animation.event,function(){t.status.animating||(t.status.animating=!0,window.requestAnimationFrame(t.triggerAnimation.bind(t)))})},t.prototype.triggerAnimation=function(t){var i=this.getProgress(t);this.animateIcon(i),this.checkProgress(i)},t.prototype.getProgress=function(t){return this.time.start||(this.time.start=t),t-this.time.start},t.prototype.checkProgress=function(t){if(this.time.total>t)window.requestAnimationFrame(this.triggerAnimation.bind(this));else{this.status={interacted:!this.status.interacted,animating:!1},this.time.start=null;var i=e(this.status.interacted);this.states[i[0]].removeAttribute("aria-hidden"),this.states[i[1]].setAttribute("aria-hidden","true")}},t.prototype.animateIcon=function(t){if(t>this.time.total){t=this.time.total;}if(0>t){t=0;};var i=e(this.status.interacted);this.states[i[0]].style.display=t>this.time.total/2?"none":"block",this.states[i[1]].style.display=t>this.time.total/2?"block":"none","scale"==this.animation.effect?this.scaleIcon(t,i[0],i[1]):this.rotateIcon(t,i[0],i[1])},t.prototype.scaleIcon=function(t,i,e){var s=r(Math.min(t,this.time.total/2),1,-.2,this.time.total/2).toFixed(2),n=r(Math.max(t-this.time.total/2,0),.2,-.2,this.time.total/2).toFixed(2);this.states[i].setAttribute("transform","translate("+this.size.width*(1-s)/2+" "+this.size.height*(1-s)/2+") scale("+s+")"),this.states[e].setAttribute("transform","translate("+this.size.width*n/2+" "+this.size.height*n/2+") scale("+(1-n)+")")},t.prototype.rotateIcon=function(t,i,e){var s=r(t,0,180,this.time.total).toFixed(2);this.states[i].setAttribute("transform","rotate(-"+s+" "+this.size.width/2+" "+this.size.height/2+")"),this.states[e].setAttribute("transform","rotate("+(180-s)+" "+this.size.width/2+" "+this.size.height/2+")")};var i=document.querySelectorAll(".js-transition-icon");if(i)for(var s=0;i.length>s;s++)new t(i[s])}();</script></svg>